<svg width="250" height="159" viewBox="0 0 250 159" fill="none" xmlns="http://www.w3.org/2000/svg">
<rect x="0.28343" y="0.28343" width="249.433" height="158.433" rx="3.71657" fill="#FBFBFB"/>
<rect x="0.28343" y="0.28343" width="249.433" height="158.433" rx="3.71657" stroke="#44A870" stroke-width="0.56686" stroke-dasharray="3.4 3.4"/>
<path d="M101.904 93.0375C101.904 93.7917 101.768 94.4436 101.496 94.993C101.223 95.5424 100.85 95.9661 100.375 96.2641C99.8997 96.5621 99.3573 96.7111 98.7473 96.7111C98.1374 96.7111 97.595 96.5621 97.12 96.2641C96.6451 95.9661 96.2715 95.5424 95.9991 94.993C95.7267 94.4436 95.5906 93.7917 95.5906 93.0375C95.5906 92.2832 95.7267 91.6314 95.9991 91.082C96.2715 90.5325 96.6451 90.1089 97.12 89.8109C97.595 89.5129 98.1374 89.3639 98.7473 89.3639C99.3573 89.3639 99.8997 89.5129 100.375 89.8109C100.85 90.1089 101.223 90.5325 101.496 91.082C101.768 91.6314 101.904 92.2832 101.904 93.0375ZM101.066 93.0375C101.066 92.4182 100.962 91.8956 100.755 91.4696C100.55 91.0435 100.272 90.7211 99.9206 90.5023C99.5714 90.2835 99.1803 90.174 98.7473 90.174C98.3143 90.174 97.922 90.2835 97.5705 90.5023C97.2213 90.7211 96.9431 91.0435 96.7359 91.4696C96.5311 91.8956 96.4286 92.4182 96.4286 93.0375C96.4286 93.6567 96.5311 94.1794 96.7359 94.6054C96.9431 95.0314 97.2213 95.3538 97.5705 95.5727C97.922 95.7915 98.3143 95.9009 98.7473 95.9009C99.1803 95.9009 99.5714 95.7915 99.9206 95.5727C100.272 95.3538 100.55 95.0314 100.755 94.6054C100.962 94.1794 101.066 93.6567 101.066 93.0375ZM104.073 93.3867V96.6133H103.249V91.2496H104.045V92.0876H104.115C104.24 91.8153 104.431 91.5964 104.687 91.4312C104.943 91.2635 105.274 91.1797 105.679 91.1797C106.042 91.1797 106.36 91.2542 106.632 91.4032C106.905 91.5499 107.116 91.7734 107.268 92.0737C107.419 92.3717 107.495 92.7488 107.495 93.2051V96.6133H106.671V93.261C106.671 92.8396 106.561 92.5113 106.342 92.2762C106.124 92.0388 105.823 91.92 105.441 91.92C105.178 91.92 104.943 91.9771 104.736 92.0911C104.531 92.2052 104.369 92.3717 104.251 92.5905C104.132 92.8093 104.073 93.0747 104.073 93.3867ZM109.825 89.4617V96.6133H109.001V89.4617H109.825ZM111.865 98.6247C111.725 98.6247 111.601 98.613 111.491 98.5898C111.382 98.5688 111.306 98.5478 111.264 98.5269L111.474 97.8006C111.674 97.8518 111.851 97.8704 112.005 97.8564C112.158 97.8425 112.295 97.7738 112.413 97.6504C112.534 97.5293 112.645 97.3326 112.745 97.0603L112.899 96.6412L110.915 91.2496H111.809L113.29 95.5238H113.346L114.826 91.2496H115.72L113.443 97.3955C113.341 97.6725 113.214 97.9018 113.063 98.0834C112.911 98.2673 112.736 98.4035 112.535 98.492C112.338 98.5804 112.114 98.6247 111.865 98.6247ZM123.373 92.4508L122.633 92.6603C122.586 92.537 122.517 92.4171 122.427 92.3007C122.338 92.1819 122.217 92.0842 122.063 92.0073C121.91 91.9305 121.713 91.8921 121.473 91.8921C121.145 91.8921 120.871 91.9678 120.653 92.1191C120.436 92.2681 120.328 92.4578 120.328 92.6883C120.328 92.8931 120.402 93.0549 120.551 93.1737C120.7 93.2924 120.933 93.3913 121.25 93.4705L122.046 93.666C122.526 93.7824 122.883 93.9605 123.118 94.2003C123.353 94.4378 123.471 94.7439 123.471 95.1187C123.471 95.426 123.382 95.7007 123.205 95.9428C123.031 96.1849 122.786 96.3758 122.472 96.5155C122.158 96.6552 121.792 96.725 121.375 96.725C120.828 96.725 120.376 96.6063 120.017 96.3688C119.659 96.1314 119.432 95.7845 119.336 95.3282L120.118 95.1327C120.193 95.4213 120.334 95.6378 120.541 95.7822C120.75 95.9265 121.024 95.9987 121.362 95.9987C121.746 95.9987 122.051 95.9172 122.276 95.7542C122.505 95.589 122.619 95.3911 122.619 95.1606C122.619 94.9744 122.553 94.8184 122.423 94.6927C122.293 94.5646 122.092 94.4692 121.822 94.4063L120.928 94.1968C120.437 94.0804 120.076 93.9 119.846 93.6556C119.618 93.4088 119.504 93.1003 119.504 92.7302C119.504 92.4275 119.589 92.1598 119.759 91.927C119.931 91.6942 120.165 91.5115 120.461 91.3788C120.759 91.2461 121.096 91.1797 121.473 91.1797C122.004 91.1797 122.421 91.2961 122.723 91.5289C123.028 91.7617 123.245 92.069 123.373 92.4508ZM128.091 94.4203V91.2496H128.916V96.6133H128.091V95.7054H128.036C127.91 95.9777 127.714 96.2094 127.449 96.4003C127.184 96.5888 126.848 96.6831 126.443 96.6831C126.108 96.6831 125.81 96.6098 125.549 96.4631C125.289 96.3141 125.084 96.0906 124.935 95.7927C124.786 95.4923 124.711 95.114 124.711 94.6578V91.2496H125.535V94.6019C125.535 94.993 125.645 95.3049 125.864 95.5377C126.085 95.7705 126.366 95.8869 126.709 95.8869C126.913 95.8869 127.122 95.8346 127.334 95.7298C127.548 95.625 127.727 95.4644 127.871 95.2479C128.018 95.0314 128.091 94.7555 128.091 94.4203ZM130.425 98.6247V91.2496H131.221V92.1016H131.319C131.379 92.0085 131.463 91.8898 131.57 91.7454C131.68 91.5988 131.836 91.4684 132.038 91.3543C132.243 91.2379 132.52 91.1797 132.869 91.1797C133.321 91.1797 133.719 91.2926 134.064 91.5185C134.408 91.7443 134.677 92.0644 134.87 92.4788C135.064 92.8931 135.16 93.382 135.16 93.9454C135.16 94.5134 135.064 95.0058 134.87 95.4225C134.677 95.8369 134.409 96.1582 134.067 96.3863C133.725 96.6121 133.33 96.725 132.883 96.725C132.539 96.725 132.263 96.668 132.056 96.5539C131.849 96.4375 131.689 96.306 131.577 96.1593C131.466 96.0103 131.379 95.8869 131.319 95.7892H131.249V98.6247H130.425ZM131.235 93.9314C131.235 94.3365 131.294 94.6938 131.413 95.0035C131.532 95.3108 131.705 95.5517 131.934 95.7263C132.162 95.8986 132.441 95.9847 132.772 95.9847C133.116 95.9847 133.404 95.8939 133.634 95.7123C133.867 95.5284 134.042 95.2817 134.158 94.972C134.277 94.6601 134.336 94.3132 134.336 93.9314C134.336 93.5543 134.278 93.2144 134.161 92.9118C134.047 92.6068 133.874 92.3658 133.641 92.1889C133.411 92.0097 133.121 91.92 132.772 91.92C132.436 91.92 132.155 92.005 131.927 92.1749C131.698 92.3426 131.526 92.5777 131.41 92.8803C131.293 93.1806 131.235 93.531 131.235 93.9314ZM136.417 98.6247V91.2496H137.213V92.1016H137.311C137.372 92.0085 137.456 91.8898 137.563 91.7454C137.672 91.5988 137.828 91.4684 138.031 91.3543C138.235 91.2379 138.512 91.1797 138.862 91.1797C139.313 91.1797 139.711 91.2926 140.056 91.5185C140.4 91.7443 140.669 92.0644 140.863 92.4788C141.056 92.8931 141.152 93.382 141.152 93.9454C141.152 94.5134 141.056 95.0058 140.863 95.4225C140.669 95.8369 140.402 96.1582 140.059 96.3863C139.717 96.6121 139.323 96.725 138.876 96.725C138.531 96.725 138.255 96.668 138.048 96.5539C137.841 96.4375 137.681 96.306 137.57 96.1593C137.458 96.0103 137.372 95.8869 137.311 95.7892H137.241V98.6247H136.417ZM137.227 93.9314C137.227 94.3365 137.287 94.6938 137.406 95.0035C137.524 95.3108 137.698 95.5517 137.926 95.7263C138.154 95.8986 138.433 95.9847 138.764 95.9847C139.108 95.9847 139.396 95.8939 139.626 95.7123C139.859 95.5284 140.034 95.2817 140.15 94.972C140.269 94.6601 140.328 94.3132 140.328 93.9314C140.328 93.5543 140.27 93.2144 140.154 92.9118C140.04 92.6068 139.866 92.3658 139.633 92.1889C139.403 92.0097 139.113 91.92 138.764 91.92C138.429 91.92 138.147 92.005 137.919 92.1749C137.691 92.3426 137.518 92.5777 137.402 92.8803C137.286 93.1806 137.227 93.531 137.227 93.9314ZM144.589 96.725C144.104 96.725 143.679 96.6098 143.314 96.3793C142.951 96.1488 142.667 95.8264 142.462 95.412C142.259 94.9976 142.158 94.5134 142.158 93.9594C142.158 93.4006 142.259 92.9129 142.462 92.4962C142.667 92.0795 142.951 91.7559 143.314 91.5254C143.679 91.295 144.104 91.1797 144.589 91.1797C145.073 91.1797 145.496 91.295 145.86 91.5254C146.225 91.7559 146.509 92.0795 146.712 92.4962C146.917 92.9129 147.019 93.4006 147.019 93.9594C147.019 94.5134 146.917 94.9976 146.712 95.412C146.509 95.8264 146.225 96.1488 145.86 96.3793C145.496 96.6098 145.073 96.725 144.589 96.725ZM144.589 95.9847C144.956 95.9847 145.259 95.8904 145.496 95.7019C145.734 95.5133 145.91 95.2654 146.024 94.9581C146.138 94.6508 146.195 94.3179 146.195 93.9594C146.195 93.6008 146.138 93.2668 146.024 92.9572C145.91 92.6475 145.734 92.3973 145.496 92.2064C145.259 92.0155 144.956 91.92 144.589 91.92C144.221 91.92 143.918 92.0155 143.681 92.2064C143.443 92.3973 143.267 92.6475 143.153 92.9572C143.039 93.2668 142.982 93.6008 142.982 93.9594C142.982 94.3179 143.039 94.6508 143.153 94.9581C143.267 95.2654 143.443 95.5133 143.681 95.7019C143.918 95.8904 144.221 95.9847 144.589 95.9847ZM148.277 96.6133V91.2496H149.073V92.0597H149.129C149.227 91.7943 149.404 91.579 149.66 91.4137C149.916 91.2484 150.205 91.1658 150.526 91.1658C150.586 91.1658 150.662 91.1669 150.753 91.1693C150.844 91.1716 150.912 91.1751 150.959 91.1797V92.0178C150.931 92.0108 150.867 92.0003 150.767 91.9864C150.669 91.9701 150.565 91.9619 150.456 91.9619C150.195 91.9619 149.962 92.0166 149.758 92.1261C149.555 92.2331 149.394 92.3821 149.276 92.573C149.159 92.7616 149.101 92.9769 149.101 93.2191V96.6133H148.277ZM154.604 91.2496V91.948H151.825V91.2496H154.604ZM152.635 89.9645H153.459V95.0768C153.459 95.3096 153.493 95.4842 153.56 95.6006C153.63 95.7147 153.719 95.7915 153.826 95.8311C153.935 95.8683 154.05 95.8869 154.171 95.8869C154.262 95.8869 154.337 95.8823 154.395 95.873C154.453 95.8613 154.5 95.852 154.535 95.845L154.702 96.5853C154.646 96.6063 154.568 96.6272 154.468 96.6482C154.368 96.6715 154.241 96.6831 154.088 96.6831C153.855 96.6831 153.627 96.6331 153.403 96.533C153.182 96.4329 152.998 96.2804 152.851 96.0755C152.707 95.8706 152.635 95.6122 152.635 95.3003V89.9645ZM92.8659 110.704C92.6354 110.704 92.4376 110.623 92.2723 110.46C92.1093 110.294 92.0278 110.096 92.0278 109.866C92.0278 109.638 92.1093 109.442 92.2723 109.279C92.4376 109.116 92.6354 109.035 92.8659 109.035C93.0894 109.035 93.285 109.116 93.4526 109.279C93.6202 109.442 93.704 109.638 93.704 109.866C93.704 110.02 93.6644 110.16 93.5853 110.289C93.5084 110.414 93.4072 110.516 93.2815 110.592C93.1558 110.667 93.0172 110.704 92.8659 110.704ZM94.9253 105.25H96.4129V110.879C96.4129 111.293 96.3314 111.628 96.1685 111.884C96.0055 112.14 95.7716 112.328 95.4666 112.447C95.1639 112.565 94.8019 112.625 94.3806 112.625C94.3294 112.625 94.2805 112.624 94.2339 112.621C94.185 112.621 94.1338 112.62 94.0803 112.618V111.455C94.1198 111.457 94.1548 111.458 94.185 111.458C94.213 111.461 94.2432 111.462 94.2758 111.462C94.5156 111.462 94.6832 111.411 94.7787 111.308C94.8764 111.208 94.9253 111.057 94.9253 110.854V105.25ZM95.6656 104.558C95.4468 104.558 95.2582 104.485 95.0999 104.338C94.9416 104.189 94.8625 104.011 94.8625 103.804C94.8625 103.599 94.9416 103.423 95.0999 103.277C95.2582 103.128 95.4468 103.053 95.6656 103.053C95.8891 103.053 96.0788 103.128 96.2348 103.277C96.3931 103.423 96.4723 103.599 96.4723 103.804C96.4723 104.011 96.3931 104.189 96.2348 104.338C96.0788 104.485 95.8891 104.558 95.6656 104.558ZM97.6046 112.625V105.25H99.0712V106.151H99.1375C99.2027 106.006 99.297 105.86 99.4204 105.711C99.5461 105.559 99.7091 105.433 99.9093 105.333C100.112 105.231 100.363 105.18 100.664 105.18C101.055 105.18 101.415 105.282 101.746 105.487C102.077 105.69 102.341 105.996 102.539 106.405C102.737 106.813 102.836 107.324 102.836 107.938C102.836 108.537 102.739 109.042 102.546 109.454C102.355 109.864 102.094 110.174 101.764 110.386C101.435 110.596 101.067 110.701 100.66 110.701C100.371 110.701 100.126 110.653 99.9232 110.557C99.723 110.462 99.5589 110.342 99.4309 110.198C99.3028 110.051 99.2051 109.903 99.1375 109.754H99.0922V112.625H97.6046ZM99.0607 107.931C99.0607 108.25 99.105 108.529 99.1934 108.766C99.2819 109.003 99.4099 109.189 99.5775 109.321C99.7452 109.452 99.9489 109.517 100.189 109.517C100.431 109.517 100.636 109.45 100.803 109.318C100.971 109.183 101.098 108.996 101.184 108.759C101.272 108.519 101.317 108.243 101.317 107.931C101.317 107.622 101.273 107.349 101.187 107.114C101.101 106.879 100.974 106.695 100.807 106.563C100.639 106.43 100.433 106.364 100.189 106.364C99.9465 106.364 99.7417 106.428 99.574 106.556C99.4088 106.684 99.2819 106.865 99.1934 107.1C99.105 107.335 99.0607 107.612 99.0607 107.931ZM106.244 112.736C105.762 112.736 105.349 112.67 105.004 112.537C104.662 112.407 104.39 112.229 104.187 112.003C103.984 111.777 103.853 111.524 103.792 111.242L105.168 111.057C105.21 111.164 105.276 111.264 105.367 111.357C105.458 111.45 105.578 111.525 105.727 111.581C105.878 111.639 106.062 111.668 106.279 111.668C106.602 111.668 106.869 111.589 107.078 111.43C107.29 111.274 107.396 111.013 107.396 110.645V109.663H107.333C107.268 109.812 107.17 109.953 107.04 110.086C106.91 110.219 106.742 110.327 106.537 110.411C106.332 110.495 106.088 110.536 105.804 110.536C105.401 110.536 105.034 110.443 104.704 110.257C104.376 110.069 104.114 109.781 103.918 109.395C103.725 109.006 103.628 108.515 103.628 107.921C103.628 107.313 103.727 106.806 103.925 106.398C104.123 105.991 104.386 105.686 104.714 105.484C105.045 105.281 105.407 105.18 105.8 105.18C106.101 105.18 106.352 105.231 106.555 105.333C106.757 105.433 106.92 105.559 107.043 105.711C107.169 105.86 107.266 106.006 107.333 106.151H107.389V105.25H108.866V110.666C108.866 111.122 108.755 111.504 108.531 111.811C108.308 112.118 107.998 112.349 107.602 112.502C107.209 112.658 106.756 112.736 106.244 112.736ZM106.275 109.419C106.515 109.419 106.718 109.36 106.883 109.241C107.05 109.12 107.178 108.948 107.267 108.724C107.358 108.498 107.403 108.228 107.403 107.914C107.403 107.6 107.359 107.327 107.27 107.097C107.182 106.864 107.054 106.684 106.886 106.556C106.719 106.428 106.515 106.364 106.275 106.364C106.031 106.364 105.825 106.43 105.657 106.563C105.489 106.693 105.363 106.875 105.276 107.107C105.19 107.34 105.147 107.609 105.147 107.914C105.147 108.224 105.19 108.491 105.276 108.717C105.365 108.941 105.492 109.114 105.657 109.237C105.825 109.358 106.031 109.419 106.275 109.419ZM111.667 109.636L111.628 110.02C111.598 110.327 111.54 110.633 111.454 110.938C111.37 111.245 111.282 111.524 111.188 111.773C111.098 112.022 111.024 112.217 110.968 112.359H110.005C110.04 112.222 110.087 112.03 110.148 111.783C110.208 111.539 110.265 111.264 110.319 110.959C110.372 110.654 110.406 110.343 110.42 110.027L110.438 109.636H111.667ZM115.836 110.704C115.606 110.704 115.408 110.623 115.243 110.46C115.08 110.294 114.998 110.096 114.998 109.866C114.998 109.638 115.08 109.442 115.243 109.279C115.408 109.116 115.606 109.035 115.836 109.035C116.06 109.035 116.255 109.116 116.423 109.279C116.591 109.442 116.674 109.638 116.674 109.866C116.674 110.02 116.635 110.16 116.556 110.289C116.479 110.414 116.378 110.516 116.252 110.592C116.126 110.667 115.988 110.704 115.836 110.704ZM117.896 112.625V105.25H119.362V106.151H119.429C119.494 106.006 119.588 105.86 119.712 105.711C119.837 105.559 120 105.433 120.2 105.333C120.403 105.231 120.654 105.18 120.955 105.18C121.346 105.18 121.707 105.282 122.037 105.487C122.368 105.69 122.632 105.996 122.83 106.405C123.028 106.813 123.127 107.324 123.127 107.938C123.127 108.537 123.03 109.042 122.837 109.454C122.646 109.864 122.385 110.174 122.055 110.386C121.726 110.596 121.359 110.701 120.951 110.701C120.663 110.701 120.417 110.653 120.214 110.557C120.014 110.462 119.85 110.342 119.722 110.198C119.594 110.051 119.496 109.903 119.429 109.754H119.383V112.625H117.896ZM119.352 107.931C119.352 108.25 119.396 108.529 119.485 108.766C119.573 109.003 119.701 109.189 119.869 109.321C120.036 109.452 120.24 109.517 120.48 109.517C120.722 109.517 120.927 109.45 121.094 109.318C121.262 109.183 121.389 108.996 121.475 108.759C121.563 108.519 121.608 108.243 121.608 107.931C121.608 107.622 121.565 107.349 121.478 107.114C121.392 106.879 121.265 106.695 121.098 106.563C120.93 106.43 120.724 106.364 120.48 106.364C120.238 106.364 120.033 106.428 119.865 106.556C119.7 106.684 119.573 106.865 119.485 107.1C119.396 107.335 119.352 107.612 119.352 107.931ZM125.606 107.512V110.613H124.118V105.25H125.536V106.196H125.599C125.718 105.884 125.917 105.637 126.196 105.456C126.476 105.272 126.814 105.18 127.212 105.18C127.585 105.18 127.91 105.261 128.187 105.424C128.464 105.587 128.679 105.82 128.833 106.123C128.986 106.423 129.063 106.781 129.063 107.198V110.613H127.576V107.463C127.578 107.135 127.494 106.879 127.324 106.695C127.154 106.509 126.92 106.416 126.622 106.416C126.422 106.416 126.245 106.459 126.091 106.545C125.94 106.631 125.821 106.757 125.735 106.922C125.651 107.085 125.608 107.282 125.606 107.512ZM132.652 112.736C132.17 112.736 131.757 112.67 131.412 112.537C131.07 112.407 130.798 112.229 130.595 112.003C130.393 111.777 130.261 111.524 130.201 111.242L131.576 111.057C131.618 111.164 131.685 111.264 131.776 111.357C131.866 111.45 131.986 111.525 132.135 111.581C132.287 111.639 132.47 111.668 132.687 111.668C133.011 111.668 133.277 111.589 133.487 111.43C133.698 111.274 133.804 111.013 133.804 110.645V109.663H133.742C133.676 109.812 133.579 109.953 133.448 110.086C133.318 110.219 133.15 110.327 132.945 110.411C132.74 110.495 132.496 110.536 132.212 110.536C131.809 110.536 131.443 110.443 131.112 110.257C130.784 110.069 130.522 109.781 130.326 109.395C130.133 109.006 130.037 108.515 130.037 107.921C130.037 107.313 130.135 106.806 130.333 106.398C130.531 105.991 130.794 105.686 131.123 105.484C131.453 105.281 131.815 105.18 132.209 105.18C132.509 105.18 132.76 105.231 132.963 105.333C133.165 105.433 133.328 105.559 133.452 105.711C133.577 105.86 133.674 106.006 133.742 106.151H133.797V105.25H135.275V110.666C135.275 111.122 135.163 111.504 134.939 111.811C134.716 112.118 134.406 112.349 134.01 112.502C133.617 112.658 133.164 112.736 132.652 112.736ZM132.683 109.419C132.923 109.419 133.126 109.36 133.291 109.241C133.459 109.12 133.587 108.948 133.675 108.724C133.766 108.498 133.811 108.228 133.811 107.914C133.811 107.6 133.767 107.327 133.679 107.097C133.59 106.864 133.462 106.684 133.295 106.556C133.127 106.428 132.923 106.364 132.683 106.364C132.439 106.364 132.233 106.43 132.065 106.563C131.898 106.693 131.771 106.875 131.685 107.107C131.599 107.34 131.556 107.609 131.556 107.914C131.556 108.224 131.599 108.491 131.685 108.717C131.773 108.941 131.9 109.114 132.065 109.237C132.233 109.358 132.439 109.419 132.683 109.419ZM141.619 105.25V106.367H138.308V105.25H141.619ZM139.066 110.613V104.862C139.066 104.473 139.142 104.151 139.293 103.895C139.447 103.639 139.656 103.447 139.921 103.318C140.187 103.19 140.488 103.126 140.826 103.126C141.054 103.126 141.262 103.144 141.451 103.179C141.642 103.214 141.784 103.245 141.877 103.273L141.612 104.391C141.553 104.372 141.481 104.354 141.395 104.338C141.311 104.322 141.225 104.314 141.137 104.314C140.918 104.314 140.765 104.365 140.679 104.467C140.593 104.567 140.55 104.708 140.55 104.89V110.613H139.066ZM142.527 110.613V105.25H144.015V110.613H142.527ZM143.275 104.558C143.054 104.558 142.864 104.485 142.705 104.338C142.55 104.189 142.472 104.011 142.472 103.804C142.472 103.599 142.55 103.423 142.705 103.277C142.864 103.128 143.054 103.053 143.275 103.053C143.496 103.053 143.684 103.128 143.84 103.277C143.999 103.423 144.078 103.599 144.078 103.804C144.078 104.011 143.999 104.189 143.84 104.338C143.684 104.485 143.496 104.558 143.275 104.558ZM146.694 103.462V110.613H145.207V103.462H146.694ZM150.33 110.718C149.779 110.718 149.304 110.606 148.906 110.383C148.51 110.157 148.205 109.838 147.991 109.426C147.776 109.012 147.669 108.522 147.669 107.956C147.669 107.404 147.776 106.92 147.991 106.503C148.205 106.086 148.506 105.762 148.895 105.529C149.286 105.296 149.745 105.18 150.271 105.18C150.625 105.18 150.954 105.237 151.259 105.351C151.566 105.463 151.834 105.631 152.062 105.857C152.293 106.083 152.472 106.367 152.6 106.709C152.728 107.049 152.792 107.447 152.792 107.903V108.312H148.263V107.39H151.392C151.392 107.176 151.345 106.986 151.252 106.821C151.159 106.656 151.03 106.526 150.865 106.433C150.702 106.338 150.512 106.29 150.295 106.29C150.07 106.29 149.869 106.343 149.695 106.447C149.522 106.55 149.387 106.688 149.29 106.863C149.192 107.035 149.142 107.227 149.139 107.439V108.316C149.139 108.581 149.188 108.81 149.286 109.003C149.386 109.197 149.527 109.346 149.709 109.45C149.89 109.555 150.106 109.608 150.355 109.608C150.52 109.608 150.671 109.584 150.809 109.538C150.946 109.491 151.064 109.421 151.161 109.328C151.259 109.235 151.334 109.121 151.385 108.986L152.761 109.077C152.691 109.407 152.548 109.696 152.331 109.943C152.117 110.187 151.84 110.378 151.5 110.516C151.163 110.651 150.773 110.718 150.33 110.718ZM158.226 106.779L156.864 106.863C156.841 106.746 156.79 106.642 156.714 106.549C156.637 106.453 156.536 106.377 156.41 106.322C156.286 106.263 156.139 106.234 155.966 106.234C155.736 106.234 155.541 106.283 155.383 106.381C155.225 106.476 155.146 106.604 155.146 106.765C155.146 106.893 155.197 107.001 155.299 107.09C155.402 107.178 155.578 107.249 155.827 107.303L156.797 107.498C157.319 107.606 157.708 107.778 157.964 108.015C158.22 108.253 158.348 108.565 158.348 108.951C158.348 109.303 158.244 109.611 158.037 109.876C157.832 110.142 157.551 110.349 157.192 110.498C156.836 110.645 156.425 110.718 155.959 110.718C155.249 110.718 154.684 110.57 154.262 110.275C153.843 109.977 153.598 109.572 153.525 109.059L154.989 108.983C155.033 109.199 155.14 109.364 155.31 109.478C155.48 109.59 155.697 109.646 155.963 109.646C156.224 109.646 156.433 109.596 156.591 109.496C156.752 109.393 156.834 109.262 156.836 109.101C156.834 108.966 156.776 108.856 156.665 108.77C156.553 108.681 156.381 108.614 156.148 108.567L155.219 108.382C154.695 108.277 154.305 108.096 154.049 107.837C153.795 107.579 153.669 107.249 153.669 106.849C153.669 106.504 153.762 106.208 153.948 105.958C154.137 105.709 154.401 105.517 154.741 105.382C155.083 105.247 155.483 105.18 155.942 105.18C156.619 105.18 157.152 105.323 157.541 105.609C157.932 105.896 158.16 106.286 158.226 106.779Z" fill="#6D6D6D"/>
<g clip-path="url(#clip0_872_2431)">
<path d="M135.175 47.2578H120.336V53.4115H138.344V50.4258C138.344 48.6788 136.923 47.2578 135.175 47.2578Z" fill="#C2FFDD"/>
<path d="M126.778 54.3596H109.422V48.6496C109.422 46.5573 111.124 44.8555 113.217 44.8555H118.767C119.318 44.8555 119.85 44.9717 120.332 45.1901C121.007 45.4939 121.586 45.9946 121.992 46.6489L126.778 54.3596Z" fill="#2FCB74"/>
<path d="M141.769 55.6376V74.0303C141.769 75.7795 140.345 77.2022 138.595 77.2022H112.596C110.846 77.2022 109.422 75.7795 109.422 74.0303V52.4648H138.595C140.345 52.4648 141.769 53.8881 141.769 55.6376Z" fill="#2FDD7C"/>
<path d="M141.775 55.6376V74.0303C141.775 75.7795 140.351 77.2022 138.601 77.2022H125.602V52.4648H138.601C140.351 52.4648 141.775 53.8881 141.775 55.6376Z" fill="#2AE07A"/>
<path d="M134.104 64.833C134.104 69.5252 130.286 73.3425 125.595 73.3425C120.903 73.3425 117.086 69.5252 117.086 64.833C117.086 60.1416 120.903 56.3242 125.595 56.3242C130.286 56.3242 134.104 60.1416 134.104 64.833Z" fill="#E5FFF0"/>
<path d="M134.11 64.833C134.11 69.5252 130.293 73.3425 125.602 73.3425V56.3242C130.293 56.3242 134.11 60.1416 134.11 64.833Z" fill="#C2FFDD"/>
<path d="M128.345 64.9403C128.168 65.0906 127.95 65.1639 127.735 65.1639C127.465 65.1639 127.197 65.0496 127.01 64.827L126.55 64.2826V67.847C126.55 68.3702 126.126 68.7946 125.603 68.7946C125.08 68.7946 124.655 68.3702 124.655 67.847V64.2826L124.196 64.827C123.858 65.2271 123.26 65.2782 122.86 64.9403C122.46 64.6029 122.409 64.0052 122.746 63.6052L124.622 61.3814C124.867 61.0921 125.224 60.9258 125.603 60.9258C125.982 60.9258 126.339 61.0921 126.583 61.3814L128.459 63.6052C128.796 64.0052 128.745 64.6029 128.345 64.9403Z" fill="#66EFA3"/>
<path d="M128.344 64.9403C128.167 65.0906 127.949 65.1639 127.734 65.1639C127.464 65.1639 127.196 65.0496 127.009 64.827L126.549 64.2826V67.847C126.549 68.3702 126.125 68.7946 125.602 68.7946V60.9258C125.981 60.9258 126.337 61.0921 126.582 61.3814L128.458 63.6052C128.795 64.0052 128.744 64.6029 128.344 64.9403Z" fill="#57F39C"/>
</g>
<defs>
<clipPath id="clip0_872_2431">
<rect width="32.3471" height="32.3471" fill="white" transform="translate(109.422 44.8555)"/>
</clipPath>
</defs>
</svg>
