<svg width="235" height="74" viewBox="0 0 235 74" fill="none" xmlns="http://www.w3.org/2000/svg">
<path d="M127.898 32.5292V8.15625H149.958V12.4049H134.82V18.2125H148.823V22.4611H134.82V28.2806H150.022V32.5292H127.898Z" fill="#A9A9A9"/>
<path d="M122.937 16.6904H115.936C115.808 16.016 115.547 15.417 115.152 14.8933C114.758 14.3618 114.252 13.9095 113.634 13.5366C113.016 13.1637 112.302 12.8781 111.492 12.6798C110.692 12.4814 109.824 12.3823 108.886 12.3823C107.192 12.3823 105.716 12.6956 104.458 13.3224C103.201 13.9413 102.226 14.8457 101.533 16.0358C100.84 17.218 100.494 18.654 100.494 20.3439C100.494 22.0815 100.84 23.5413 101.533 24.7235C102.236 25.9056 103.217 26.7982 104.474 27.4012C105.732 28.0041 107.186 28.3056 108.838 28.3056C109.765 28.3056 110.623 28.2144 111.412 28.0319C112.211 27.8494 112.92 27.5836 113.538 27.2345C114.156 26.8775 114.667 26.4451 115.072 25.9373C115.488 25.4296 115.776 24.8504 115.936 24.1998L122.937 24.2236C122.756 25.3423 122.303 26.4213 121.578 27.4607C120.864 28.4921 119.9 29.4164 118.685 30.2336C117.481 31.0428 116.042 31.6855 114.369 32.1615C112.707 32.6296 110.826 32.8637 108.726 32.8637C105.806 32.8637 103.195 32.3717 100.894 31.3879C98.6024 30.4041 96.7908 28.98 95.4587 27.1155C94.1373 25.2511 93.4766 22.9939 93.4766 20.3439C93.4766 17.6861 94.1479 15.4249 95.4907 13.5604C96.8334 11.696 98.6557 10.2758 100.958 9.29993C103.259 8.31612 105.849 7.82422 108.726 7.82422C110.623 7.82422 112.382 8.02257 114.001 8.41926C115.632 8.81596 117.076 9.39513 118.333 10.1568C119.591 10.9105 120.614 11.8348 121.402 12.9297C122.202 14.0246 122.713 15.2781 122.937 16.6904Z" fill="#A9A9A9"/>
<path d="M67.5577 32.5292H60.1406L71.442 8.15625H80.3617L91.6471 32.5292H84.2301L76.0297 13.7259H75.774L67.5577 32.5292ZM67.0941 22.949H84.6137V26.9715H67.0941V22.949Z" fill="#A9A9A9"/>
<path d="M36.5469 32.5292V8.15625H49.4628C51.9458 8.15625 54.0611 8.50931 55.8088 9.21543C57.5565 9.91361 58.8886 10.8855 59.8051 12.1311C60.7322 13.3688 61.1958 14.7969 61.1958 16.4155C61.1958 18.034 60.7269 19.4621 59.7891 20.6998C58.8513 21.9375 57.4926 22.9014 55.7129 23.5917C53.9439 24.2819 51.8019 24.6271 49.2869 24.6271H41.0547V20.4975H48.168C49.5001 20.4975 50.5977 20.3269 51.4609 19.9857C52.3348 19.6366 52.9848 19.1566 53.4111 18.5457C53.848 17.9269 54.0665 17.2168 54.0665 16.4155C54.0665 15.6062 53.848 14.9001 53.4111 14.2971C52.9848 13.6862 52.3348 13.2141 51.4609 12.8809C50.5871 12.5397 49.4788 12.3692 48.136 12.3692H43.4684V32.5292H36.5469Z" fill="#A9A9A9"/>
<path d="M24.8144 15.1671C24.6865 14.2071 24.1377 13.4613 23.1679 12.9297C22.1982 12.3981 20.8821 12.1323 19.2196 12.1323C18.09 12.1323 17.1362 12.2513 16.3583 12.4894C15.5804 12.7194 14.9836 13.0408 14.568 13.4533C14.163 13.8659 13.9605 14.334 13.9605 14.8576C13.9392 15.294 14.0618 15.6748 14.3282 16.0001C14.6053 16.3254 14.9836 16.6071 15.4631 16.8451C15.9427 17.0752 16.4968 17.2775 17.1256 17.452C17.7543 17.6186 18.4257 17.7614 19.1397 17.8805L22.0809 18.4041C23.5089 18.6421 24.8197 18.9595 26.0133 19.3562C27.2068 19.7529 28.2405 20.2408 29.1144 20.82C29.9882 21.3991 30.6649 22.0815 31.1445 22.8669C31.6347 23.6524 31.8851 24.5529 31.8957 25.5684C31.8851 27.06 31.3736 28.3532 30.3612 29.4481C29.3595 30.535 27.9102 31.38 26.0133 31.983C24.127 32.578 21.8518 32.8756 19.1877 32.8756C16.5448 32.8756 14.2429 32.5741 12.2821 31.9711C10.3319 31.3681 8.80804 30.4755 7.7104 29.2934C6.62342 28.1033 6.05328 26.6316 6 24.8782H12.6977C12.7723 25.6954 13.0867 26.3777 13.6408 26.9251C14.2057 27.4646 14.9569 27.8732 15.8947 28.1509C16.8432 28.4207 17.9142 28.5555 19.1077 28.5555C20.28 28.5555 21.2977 28.4286 22.1609 28.1747C23.0347 27.9208 23.7114 27.5678 24.191 27.1155C24.6705 26.6633 24.9103 26.1436 24.9103 25.5565C24.9103 25.0091 24.6918 24.5489 24.2549 24.176C23.8286 23.8031 23.1999 23.4858 22.3687 23.2239C21.5481 22.9621 20.541 22.7241 19.3475 22.5099L15.7828 21.8434C13.0228 21.3436 10.8435 20.5621 9.24496 19.499C7.64646 18.4358 6.85254 17.0038 6.86319 15.2028C6.85254 13.727 7.38004 12.4378 8.44571 11.335C9.52204 10.2322 10.998 9.37133 12.8736 8.75249C14.7491 8.13364 16.8805 7.82422 19.2676 7.82422C21.6973 7.82422 23.818 8.13364 25.6296 8.75249C27.4519 9.37133 28.8693 10.2322 29.8816 11.335C30.894 12.4378 31.4162 13.7151 31.4482 15.1671H24.8144Z" fill="#A9A9A9"/>
<rect x="161.523" width="23.0065" height="36.3503" rx="11.5033" fill="#ECECEC"/>
<circle cx="173.032" cy="12.7425" r="8.74248" fill="#A9A9A9"/>
<path d="M191.515 33V8.62702H207.652V12.8756H196.668V18.6833H206.581V22.9319H196.668V33H191.515ZM211.118 33V8.62702H227.256V12.8756H216.271V18.6833H226.185V22.9319H216.271V33H211.118Z" fill="#A9A9A9"/>
<path d="M7.38852 56.32H10.4885V58.48H7.38852V56.32ZM7.38852 62.06H10.4885V64.2H7.38852V62.06ZM13.4085 52.24H15.9485V70.76H13.4085V52.24ZM9.72852 52.54H12.2085V69.94H9.72852V52.54ZM4.20852 53.54C5.02185 53.54 5.72852 53.8133 6.32852 54.36C6.94185 54.8933 7.40852 55.6667 7.72852 56.68C8.06185 57.68 8.22852 58.88 8.22852 60.28C8.22852 61.6667 8.06185 62.8667 7.72852 63.88C7.40852 64.8933 6.94185 65.6733 6.32852 66.22C5.72852 66.7533 5.01518 67.02 4.18852 67.02C3.38852 67.02 2.68185 66.7533 2.06852 66.22C1.46852 65.6733 1.00185 64.8933 0.668516 63.88C0.348516 62.8667 0.188516 61.6667 0.188516 60.28C0.188516 58.88 0.348516 57.68 0.668516 56.68C1.00185 55.6667 1.46852 54.8933 2.06852 54.36C2.68185 53.8133 3.39518 53.54 4.20852 53.54ZM4.20852 56.06C3.86185 56.06 3.56852 56.2133 3.32852 56.52C3.08852 56.8267 2.90185 57.2933 2.76852 57.92C2.64852 58.5333 2.58852 59.32 2.58852 60.28C2.58852 61.2133 2.64852 61.9933 2.76852 62.62C2.90185 63.2467 3.08852 63.72 3.32852 64.04C3.56852 64.3467 3.86185 64.5 4.20852 64.5C4.55518 64.5 4.84852 64.3467 5.08852 64.04C5.32852 63.72 5.51518 63.2467 5.64852 62.62C5.78185 61.9933 5.84852 61.2133 5.84852 60.28C5.84852 59.32 5.78185 58.5333 5.64852 57.92C5.51518 57.2933 5.32852 56.8267 5.08852 56.52C4.84852 56.2133 4.55518 56.06 4.20852 56.06ZM32.207 54.66H35.387V56.84H32.207V54.66ZM32.207 58.68H35.387V60.84H32.207V58.68ZM30.347 52.26H33.007V63.18H30.347V52.26ZM20.647 63.94H33.007V70.78H30.347V66.04H20.647V63.94ZM23.587 53.26C24.547 53.26 25.407 53.46 26.167 53.86C26.927 54.2467 27.527 54.78 27.967 55.46C28.407 56.1267 28.627 56.9 28.627 57.78C28.627 58.6733 28.407 59.46 27.967 60.14C27.527 60.82 26.927 61.3533 26.167 61.74C25.407 62.1267 24.547 62.32 23.587 62.32C22.6403 62.32 21.787 62.1267 21.027 61.74C20.267 61.3533 19.667 60.82 19.227 60.14C18.787 59.46 18.567 58.6733 18.567 57.78C18.567 56.9 18.787 56.1267 19.227 55.46C19.667 54.78 20.267 54.2467 21.027 53.86C21.787 53.46 22.6403 53.26 23.587 53.26ZM23.587 55.5C23.1336 55.5 22.7203 55.5933 22.347 55.78C21.9736 55.9533 21.6803 56.2133 21.467 56.56C21.267 56.8933 21.167 57.3 21.167 57.78C21.167 58.2733 21.267 58.6933 21.467 59.04C21.6803 59.3733 21.9736 59.6333 22.347 59.82C22.7203 59.9933 23.1336 60.08 23.587 60.08C24.067 60.08 24.487 59.9933 24.847 59.82C25.207 59.6333 25.4936 59.3733 25.707 59.04C25.9203 58.6933 26.027 58.2733 26.027 57.78C26.027 57.3 25.9203 56.8933 25.707 56.56C25.4936 56.2133 25.207 55.9533 24.847 55.78C24.487 55.5933 24.067 55.5 23.587 55.5ZM40.9854 55.18H43.0854V57.26C43.0854 58.2867 42.9721 59.3133 42.7454 60.34C42.5321 61.3667 42.2121 62.3333 41.7854 63.24C41.3587 64.1333 40.8187 64.9333 40.1654 65.64C39.5254 66.3467 38.7787 66.9 37.9254 67.3L36.4254 65.2C37.1987 64.84 37.8654 64.3667 38.4254 63.78C38.9987 63.1933 39.4721 62.54 39.8454 61.82C40.2321 61.1 40.5187 60.3533 40.7054 59.58C40.8921 58.7933 40.9854 58.02 40.9854 57.26V55.18ZM41.5454 55.18H43.6454V57.26C43.6454 57.9533 43.7387 58.6667 43.9254 59.4C44.1121 60.1333 44.3854 60.84 44.7454 61.52C45.1187 62.2 45.5854 62.82 46.1454 63.38C46.7187 63.9267 47.3854 64.3733 48.1454 64.72L46.6654 66.84C45.8121 66.44 45.0654 65.9067 44.4254 65.24C43.7987 64.56 43.2654 63.7933 42.8254 62.94C42.3987 62.0733 42.0787 61.16 41.8654 60.2C41.6521 59.2267 41.5454 58.2467 41.5454 57.26V55.18ZM37.1454 54.02H47.3254V56.22H37.1454V54.02ZM48.6654 52.26H51.3454V70.78H48.6654V52.26ZM50.7654 59.32H54.0254V61.5H50.7654V59.32ZM70.2643 56.72H73.7843V58.88H70.2643V56.72ZM73.0443 52.26H75.7243V63.26H73.0443V52.26ZM69.4443 63.66C70.751 63.66 71.8776 63.8 72.8243 64.08C73.771 64.36 74.4976 64.7667 75.0043 65.3C75.5243 65.8333 75.7843 66.4733 75.7843 67.22C75.7843 68.3667 75.2176 69.2467 74.0843 69.86C72.951 70.4867 71.4043 70.8 69.4443 70.8C67.4843 70.8 65.9376 70.4867 64.8043 69.86C63.671 69.2467 63.1043 68.3667 63.1043 67.22C63.1043 66.4733 63.3576 65.8333 63.8643 65.3C64.3843 64.7667 65.1176 64.36 66.0643 64.08C67.011 63.8 68.1376 63.66 69.4443 63.66ZM69.4443 65.68C68.6443 65.68 67.971 65.74 67.4243 65.86C66.8776 65.9667 66.4576 66.1333 66.1643 66.36C65.8843 66.5867 65.7443 66.8733 65.7443 67.22C65.7443 67.5667 65.8843 67.86 66.1643 68.1C66.4576 68.3267 66.8776 68.5 67.4243 68.62C67.971 68.7267 68.6443 68.78 69.4443 68.78C70.2443 68.78 70.9176 68.7267 71.4643 68.62C72.011 68.5 72.4243 68.3267 72.7043 68.1C72.9843 67.86 73.1243 67.5667 73.1243 67.22C73.1243 66.8733 72.9843 66.5867 72.7043 66.36C72.4243 66.1333 72.011 65.9667 71.4643 65.86C70.9176 65.74 70.2443 65.68 69.4443 65.68ZM64.5043 54.1H66.6643V55.28C66.6643 56.4533 66.4776 57.5733 66.1043 58.64C65.731 59.7067 65.1576 60.6467 64.3843 61.46C63.6243 62.26 62.651 62.86 61.4643 63.26L60.1243 61.16C60.8843 60.9067 61.5376 60.5667 62.0843 60.14C62.6443 59.7133 63.0976 59.24 63.4443 58.72C63.8043 58.1867 64.071 57.6267 64.2443 57.04C64.4176 56.4533 64.5043 55.8667 64.5043 55.28V54.1ZM65.0643 54.1H67.1843V55.26C67.1843 55.9933 67.331 56.7133 67.6243 57.42C67.9176 58.1267 68.371 58.7667 68.9843 59.34C69.611 59.9133 70.411 60.3667 71.3843 60.7L70.0843 62.78C68.9376 62.3933 67.991 61.8267 67.2443 61.08C66.511 60.32 65.9643 59.44 65.6043 58.44C65.2443 57.4267 65.0643 56.3667 65.0643 55.26V54.1ZM60.8443 53.38H70.8043V55.48H60.8443V53.38ZM78.6227 66.46H95.4027V68.62H78.6227V66.46ZM85.6627 62.5H88.3027V66.98H85.6627V62.5ZM80.3827 53.42H83.0427V56.28H90.9227V53.42H93.5627V63.06H80.3827V53.42ZM83.0427 58.36V60.94H90.9227V58.36H83.0427ZM97.0212 60.56H113.781V62.48H97.0212V60.56ZM98.9012 63.42H111.801V67.82H101.561V69.4H98.9212V66.14H109.181V65.22H98.9012V63.42ZM98.9212 68.82H112.321V70.62H98.9212V68.82ZM99.0612 52.56H111.741V56.94H101.721V58.44H99.1012V55.26H109.121V54.36H99.0612V52.56ZM99.1012 57.9H112.081V59.7H99.1012V57.9ZM124.58 60.72H127.24V63.36H124.58V60.72ZM132.42 52.26H135.08V64.88H132.42V52.26ZM134.16 57.54H137.42V59.74H134.16V57.54ZM120.48 64.5L120.18 62.44C121.287 62.44 122.487 62.4333 123.78 62.42C125.087 62.4067 126.407 62.3667 127.74 62.3C129.073 62.22 130.367 62.1067 131.62 61.96L131.82 63.78C130.527 64.0067 129.213 64.1733 127.88 64.28C126.547 64.3733 125.247 64.4333 123.98 64.46C122.727 64.4733 121.56 64.4867 120.48 64.5ZM122.52 65.6H135.08V70.78H132.42V67.66H122.52V65.6ZM120.64 53.6H131.16V55.52H120.64V53.6ZM125.9 55.96C127.273 55.96 128.367 56.2067 129.18 56.7C130.007 57.18 130.42 57.8467 130.42 58.7C130.42 59.5533 130.007 60.2267 129.18 60.72C128.367 61.2133 127.273 61.46 125.9 61.46C124.54 61.46 123.447 61.2133 122.62 60.72C121.807 60.2267 121.4 59.5533 121.4 58.7C121.4 57.8467 121.807 57.18 122.62 56.7C123.447 56.2067 124.54 55.96 125.9 55.96ZM125.9 57.68C125.273 57.68 124.787 57.7667 124.44 57.94C124.093 58.1133 123.92 58.3667 123.92 58.7C123.92 59.0333 124.093 59.2933 124.44 59.48C124.787 59.6533 125.273 59.74 125.9 59.74C126.527 59.74 127.013 59.6533 127.36 59.48C127.72 59.2933 127.9 59.0333 127.9 58.7C127.9 58.3667 127.72 58.1133 127.36 57.94C127.013 57.7667 126.527 57.68 125.9 57.68ZM124.58 52.1H127.24V54.48H124.58V52.1ZM151.519 52.26H154.179V65.56H151.519V52.26ZM141.839 68.32H154.659V70.46H141.839V68.32ZM141.839 64.24H144.499V69.2H141.839V64.24ZM144.099 53.44C145.045 53.44 145.899 53.64 146.659 54.04C147.419 54.44 148.019 54.9933 148.459 55.7C148.912 56.4067 149.139 57.22 149.139 58.14C149.139 59.0333 148.912 59.84 148.459 60.56C148.019 61.2667 147.419 61.8267 146.659 62.24C145.899 62.64 145.045 62.84 144.099 62.84C143.152 62.84 142.299 62.64 141.539 62.24C140.779 61.8267 140.172 61.2667 139.719 60.56C139.279 59.84 139.059 59.0333 139.059 58.14C139.059 57.22 139.279 56.4067 139.719 55.7C140.172 54.9933 140.779 54.44 141.539 54.04C142.299 53.64 143.152 53.44 144.099 53.44ZM144.099 55.72C143.645 55.72 143.232 55.82 142.859 56.02C142.485 56.2067 142.192 56.48 141.979 56.84C141.765 57.1867 141.659 57.62 141.659 58.14C141.659 58.6333 141.765 59.06 141.979 59.42C142.192 59.7667 142.485 60.04 142.859 60.24C143.232 60.4267 143.645 60.52 144.099 60.52C144.552 60.52 144.965 60.4267 145.339 60.24C145.712 60.04 146.005 59.7667 146.219 59.42C146.432 59.06 146.539 58.6333 146.539 58.14C146.539 57.62 146.432 57.1867 146.219 56.84C146.005 56.48 145.712 56.2067 145.339 56.02C144.965 55.82 144.552 55.72 144.099 55.72ZM157.177 55.04H166.037V57.14H157.177V55.04ZM161.637 57.98C162.424 57.98 163.117 58.1667 163.717 58.54C164.33 58.9133 164.81 59.4333 165.157 60.1C165.517 60.7533 165.697 61.5133 165.697 62.38C165.697 63.2467 165.517 64.0133 165.157 64.68C164.81 65.3333 164.33 65.8467 163.717 66.22C163.117 66.5933 162.424 66.78 161.637 66.78C160.85 66.78 160.15 66.5933 159.537 66.22C158.924 65.8467 158.444 65.3333 158.097 64.68C157.75 64.0133 157.577 63.2467 157.577 62.38C157.577 61.5133 157.75 60.7533 158.097 60.1C158.444 59.4333 158.924 58.9133 159.537 58.54C160.164 58.1667 160.864 57.98 161.637 57.98ZM161.637 60.18C161.317 60.18 161.024 60.2667 160.757 60.44C160.49 60.6133 160.284 60.8667 160.137 61.2C159.99 61.52 159.917 61.9133 159.917 62.38C159.917 62.8467 159.99 63.2467 160.137 63.58C160.284 63.9133 160.49 64.1667 160.757 64.34C161.024 64.5 161.317 64.58 161.637 64.58C161.97 64.58 162.264 64.5 162.517 64.34C162.77 64.1667 162.97 63.9133 163.117 63.58C163.264 63.2467 163.337 62.8467 163.337 62.38C163.337 61.9133 163.264 61.52 163.117 61.2C162.97 60.8667 162.77 60.6133 162.517 60.44C162.264 60.2667 161.97 60.18 161.637 60.18ZM170.577 52.24H173.097V70.76H170.577V52.24ZM168.357 59.78H171.397V61.92H168.357V59.78ZM166.677 52.58H169.157V69.98H166.677V52.58ZM160.337 52.74H162.957V56.36H160.337V52.74ZM175.595 66.46H192.375V68.62H175.595V66.46ZM182.635 62.5H185.275V66.98H182.635V62.5ZM177.355 53.42H180.015V56.28H187.895V53.42H190.535V63.06H177.355V53.42ZM180.015 58.36V60.94H187.895V58.36H180.015ZM201.274 58.48H204.354V60.64H201.274V58.48ZM197.334 53.86H199.354V56.96C199.354 58.0133 199.28 59.0467 199.134 60.06C198.987 61.0733 198.747 62.0267 198.414 62.92C198.094 63.8133 197.667 64.62 197.134 65.34C196.614 66.0467 195.98 66.6267 195.234 67.08L193.634 65.08C194.327 64.6667 194.907 64.16 195.374 63.56C195.84 62.96 196.22 62.3 196.514 61.58C196.807 60.86 197.014 60.1133 197.134 59.34C197.267 58.5533 197.334 57.76 197.334 56.96V53.86ZM197.914 53.86H199.894V56.84C199.894 57.6 199.947 58.3533 200.054 59.1C200.174 59.8467 200.36 60.56 200.614 61.24C200.867 61.92 201.2 62.5467 201.614 63.12C202.04 63.6933 202.574 64.1867 203.214 64.6L201.754 66.68C201.034 66.2267 200.42 65.6533 199.914 64.96C199.42 64.2533 199.027 63.46 198.734 62.58C198.44 61.7 198.227 60.7733 198.094 59.8C197.974 58.8267 197.914 57.84 197.914 56.84V53.86ZM207.354 52.24H209.894V70.76H207.354V52.24ZM203.594 52.54H206.074V69.94H203.594V52.54ZM216.072 61.66H218.732V66.84H216.072V61.66ZM222.792 61.66H225.452V66.84H222.792V61.66ZM212.392 66.46H229.172V68.62H212.392V66.46ZM220.752 53.16C222.086 53.16 223.272 53.3667 224.312 53.78C225.366 54.1933 226.186 54.7733 226.772 55.52C227.372 56.2533 227.672 57.1267 227.672 58.14C227.672 59.14 227.372 60.0133 226.772 60.76C226.186 61.4933 225.366 62.0667 224.312 62.48C223.272 62.8933 222.086 63.1 220.752 63.1C219.432 63.1 218.246 62.8933 217.192 62.48C216.152 62.0667 215.332 61.4933 214.732 60.76C214.132 60.0133 213.832 59.14 213.832 58.14C213.832 57.1267 214.132 56.2533 214.732 55.52C215.332 54.7733 216.152 54.1933 217.192 53.78C218.246 53.3667 219.432 53.16 220.752 53.16ZM220.752 55.22C219.899 55.22 219.146 55.34 218.492 55.58C217.852 55.8067 217.352 56.1333 216.992 56.56C216.632 56.9867 216.452 57.5133 216.452 58.14C216.452 58.74 216.632 59.26 216.992 59.7C217.352 60.1267 217.852 60.46 218.492 60.7C219.146 60.9267 219.899 61.04 220.752 61.04C221.619 61.04 222.372 60.9267 223.012 60.7C223.666 60.46 224.166 60.1267 224.512 59.7C224.872 59.26 225.052 58.74 225.052 58.14C225.052 57.5133 224.872 56.9867 224.512 56.56C224.166 56.1333 223.666 55.8067 223.012 55.58C222.372 55.34 221.619 55.22 220.752 55.22ZM231.201 67.6426C231.201 67.2259 231.344 66.8776 231.631 66.5977C231.924 66.3177 232.311 66.1777 232.793 66.1777C233.275 66.1777 233.659 66.3177 233.945 66.5977C234.238 66.8776 234.385 67.2259 234.385 67.6426C234.385 68.0592 234.238 68.4076 233.945 68.6875C233.659 68.9674 233.275 69.1074 232.793 69.1074C232.311 69.1074 231.924 68.9674 231.631 68.6875C231.344 68.4076 231.201 68.0592 231.201 67.6426Z" fill="#A9A9A9"/>
</svg>
