<svg width="21" height="21" viewBox="0 0 21 21" fill="none" xmlns="http://www.w3.org/2000/svg">
<mask id="mask0_582_5925" style="mask-type:alpha" maskUnits="userSpaceOnUse" x="0" y="0" width="21" height="21">
<rect x="0.445312" y="0.378906" width="20.1053" height="20.1053" fill="white"/>
</mask>
<g mask="url(#mask0_582_5925)">
<path d="M9.66343 19.6039V17.9284C7.91818 17.733 6.42076 17.0104 5.17116 15.7608C3.92156 14.5112 3.19903 13.0138 3.00356 11.2686H1.32812V9.59312H3.00356C3.19903 7.84787 3.92156 6.35045 5.17116 5.10085C6.42076 3.85125 7.91818 3.12872 9.66343 2.93325V1.25781H11.3389V2.93325C13.0841 3.12872 14.5815 3.85125 15.8311 5.10085C17.0807 6.35045 17.8033 7.84787 17.9987 9.59312H19.6742V11.2686H17.9987C17.8033 13.0138 17.0807 14.5112 15.8311 15.7608C14.5815 17.0104 13.0841 17.733 11.3389 17.9284V19.6039H9.66343ZM10.5012 16.2949C12.1207 16.2949 13.503 15.7224 14.6479 14.5775C15.7927 13.4327 16.3652 12.0504 16.3652 10.4308C16.3652 8.81125 15.7927 7.42901 14.6479 6.28413C13.503 5.13925 12.1207 4.5668 10.5012 4.5668C8.88156 4.5668 7.49932 5.13925 6.35444 6.28413C5.20956 7.42901 4.63712 8.81125 4.63712 10.4308C4.63712 12.0504 5.20956 13.4327 6.35444 14.5775C7.49932 15.7224 8.88156 16.2949 10.5012 16.2949ZM10.5012 13.7817C9.57966 13.7817 8.79081 13.4536 8.13459 12.7974C7.47838 12.1412 7.15027 11.3523 7.15027 10.4308C7.15027 9.50935 7.47838 8.7205 8.13459 8.06428C8.79081 7.40807 9.57966 7.07996 10.5012 7.07996C11.4226 7.07996 12.2115 7.40807 12.8677 8.06428C13.5239 8.7205 13.852 9.50935 13.852 10.4308C13.852 11.3523 13.5239 12.1412 12.8677 12.7974C12.2115 13.4536 11.4226 13.7817 10.5012 13.7817ZM10.5012 12.1063C10.9619 12.1063 11.3563 11.9422 11.6844 11.6141C12.0125 11.286 12.1766 10.8916 12.1766 10.4308C12.1766 9.97009 12.0125 9.57567 11.6844 9.24756C11.3563 8.91945 10.9619 8.7554 10.5012 8.7554C10.0404 8.7554 9.64598 8.91945 9.31787 9.24756C8.98977 9.57567 8.82571 9.97009 8.82571 10.4308C8.82571 10.8916 8.98977 11.286 9.31787 11.6141C9.64598 11.9422 10.0404 12.1063 10.5012 12.1063Z" fill="#2FB975"/>
</g>
</svg>
