<svg width="223" height="74" viewBox="0 0 223 74" fill="none" xmlns="http://www.w3.org/2000/svg">
<path d="M121.898 32.5292V8.15625H143.958V12.4049H128.82V18.2125H142.823V22.4611H128.82V28.2806H144.022V32.5292H121.898Z" fill="#A9A9A9"/>
<path d="M116.937 16.6904H109.936C109.808 16.016 109.547 15.417 109.152 14.8933C108.758 14.3618 108.252 13.9095 107.634 13.5366C107.016 13.1637 106.302 12.8781 105.492 12.6798C104.692 12.4814 103.824 12.3823 102.886 12.3823C101.192 12.3823 99.7158 12.6956 98.4583 13.3224C97.2008 13.9413 96.2257 14.8457 95.533 16.0358C94.8403 17.218 94.494 18.654 94.494 20.3439C94.494 22.0815 94.8403 23.5413 95.533 24.7235C96.2364 25.9056 97.2168 26.7982 98.4743 27.4012C99.7318 28.0041 101.186 28.3056 102.838 28.3056C103.765 28.3056 104.623 28.2144 105.412 28.0319C106.211 27.8494 106.92 27.5836 107.538 27.2345C108.156 26.8775 108.667 26.4451 109.072 25.9373C109.488 25.4296 109.776 24.8504 109.936 24.1998L116.937 24.2236C116.756 25.3423 116.303 26.4213 115.578 27.4607C114.864 28.4921 113.9 29.4164 112.685 30.2336C111.481 31.0428 110.042 31.6855 108.369 32.1615C106.707 32.6296 104.826 32.8637 102.726 32.8637C99.8063 32.8637 97.1955 32.3717 94.8936 31.3879C92.6024 30.4041 90.7908 28.98 89.4587 27.1155C88.1373 25.2511 87.4766 22.9939 87.4766 20.3439C87.4766 17.6861 88.1479 15.4249 89.4907 13.5604C90.8334 11.696 92.6557 10.2758 94.9576 9.29993C97.2594 8.31612 99.849 7.82422 102.726 7.82422C104.623 7.82422 106.382 8.02257 108.001 8.41926C109.632 8.81596 111.076 9.39513 112.333 10.1568C113.591 10.9105 114.614 11.8348 115.402 12.9297C116.202 14.0246 116.713 15.2781 116.937 16.6904Z" fill="#A9A9A9"/>
<path d="M61.5577 32.5292H54.1406L65.442 8.15625H74.3617L85.6471 32.5292H78.2301L70.0297 13.7259H69.774L61.5577 32.5292ZM61.0941 22.949H78.6137V26.9715H61.0941V22.949Z" fill="#A9A9A9"/>
<path d="M30.5469 32.5292V8.15625H43.4628C45.9458 8.15625 48.0611 8.50931 49.8088 9.21543C51.5565 9.91361 52.8886 10.8855 53.8051 12.1311C54.7322 13.3688 55.1958 14.7969 55.1958 16.4155C55.1958 18.034 54.7269 19.4621 53.7891 20.6998C52.8513 21.9375 51.4926 22.9014 49.7129 23.5917C47.9439 24.2819 45.8019 24.6271 43.2869 24.6271H35.0547V20.4975H42.168C43.5001 20.4975 44.5977 20.3269 45.4609 19.9857C46.3348 19.6366 46.9848 19.1566 47.4111 18.5457C47.848 17.9269 48.0665 17.2168 48.0665 16.4155C48.0665 15.6062 47.848 14.9001 47.4111 14.2971C46.9848 13.6862 46.3348 13.2141 45.4609 12.8809C44.5871 12.5397 43.4788 12.3692 42.136 12.3692H37.4684V32.5292H30.5469Z" fill="#A9A9A9"/>
<path d="M18.8144 15.1671C18.6865 14.2071 18.1377 13.4613 17.1679 12.9297C16.1982 12.3981 14.8821 12.1323 13.2196 12.1323C12.09 12.1323 11.1362 12.2513 10.3583 12.4894C9.58036 12.7194 8.98359 13.0408 8.56798 13.4533C8.16302 13.8659 7.96055 14.334 7.96055 14.8576C7.93923 15.294 8.06178 15.6748 8.3282 16.0001C8.60528 16.3254 8.98359 16.6071 9.46314 16.8451C9.94269 17.0752 10.4968 17.2775 11.1256 17.452C11.7543 17.6186 12.4257 17.7614 13.1397 17.8805L16.0809 18.4041C17.5089 18.6421 18.8197 18.9595 20.0133 19.3562C21.2068 19.7529 22.2405 20.2408 23.1144 20.82C23.9882 21.3991 24.6649 22.0815 25.1445 22.8669C25.6347 23.6524 25.8851 24.5529 25.8957 25.5684C25.8851 27.06 25.3736 28.3532 24.3612 29.4481C23.3595 30.535 21.9102 31.38 20.0133 31.983C18.127 32.578 15.8518 32.8756 13.1877 32.8756C10.5448 32.8756 8.24295 32.5741 6.28212 31.9711C4.33194 31.3681 2.80804 30.4755 1.7104 29.2934C0.623416 28.1033 0.0532835 26.6316 0 24.8782H6.69773C6.77233 25.6954 7.0867 26.3777 7.64085 26.9251C8.20565 27.4646 8.95695 27.8732 9.89473 28.1509C10.8432 28.4207 11.9142 28.5555 13.1077 28.5555C14.28 28.5555 15.2977 28.4286 16.1609 28.1747C17.0347 27.9208 17.7114 27.5678 18.191 27.1155C18.6705 26.6633 18.9103 26.1436 18.9103 25.5565C18.9103 25.0091 18.6918 24.5489 18.2549 24.176C17.8286 23.8031 17.1999 23.4858 16.3687 23.2239C15.5481 22.9621 14.541 22.7241 13.3475 22.5099L9.78284 21.8434C7.02276 21.3436 4.84346 20.5621 3.24496 19.499C1.64646 18.4358 0.852535 17.0038 0.863192 15.2028C0.852535 13.727 1.38004 12.4378 2.44571 11.335C3.52204 10.2322 4.99799 9.37133 6.87356 8.75249C8.74914 8.13364 10.8805 7.82422 13.2676 7.82422C15.6973 7.82422 17.818 8.13364 19.6296 8.75249C21.4519 9.37133 22.8693 10.2322 23.8816 11.335C24.894 12.4378 25.4162 13.7151 25.4482 15.1671H18.8144Z" fill="#A9A9A9"/>
<rect x="155.523" width="23.0065" height="36.3503" rx="11.5033" fill="#ECECEC"/>
<circle cx="167.032" cy="12.7425" r="8.74248" fill="#A9A9A9"/>
<path d="M185.515 33V8.62702H201.652V12.8756H190.668V18.6833H200.581V22.9319H190.668V33H185.515ZM205.118 33V8.62702H221.256V12.8756H210.271V18.6833H220.185V22.9319H210.271V33H205.118Z" fill="#A9A9A9"/>
<path d="M37.8807 54.3H40.2007V54.86C40.2007 55.5 40.094 56.12 39.8807 56.72C39.6807 57.32 39.374 57.88 38.9607 58.4C38.5474 58.9067 38.0407 59.3667 37.4407 59.78C36.854 60.18 36.174 60.52 35.4007 60.8C34.6274 61.08 33.7674 61.28 32.8207 61.4L31.8407 59.34C32.6674 59.2333 33.4007 59.0733 34.0407 58.86C34.694 58.6333 35.2607 58.3733 35.7407 58.08C36.2207 57.7733 36.6207 57.4467 36.9407 57.1C37.2607 56.7533 37.494 56.3867 37.6407 56C37.8007 55.6133 37.8807 55.2333 37.8807 54.86V54.3ZM38.6607 54.3H40.9607V54.86C40.9607 55.2333 41.034 55.6133 41.1807 56C41.3407 56.3867 41.5807 56.7533 41.9007 57.1C42.2207 57.4467 42.6207 57.7733 43.1007 58.08C43.594 58.3733 44.1607 58.6333 44.8007 58.86C45.4407 59.0733 46.174 59.2333 47.0007 59.34L46.0207 61.4C45.074 61.28 44.214 61.08 43.4407 60.8C42.6674 60.52 41.9807 60.18 41.3807 59.78C40.794 59.3667 40.294 58.9067 39.8807 58.4C39.4807 57.88 39.174 57.32 38.9607 56.72C38.7607 56.12 38.6607 55.5 38.6607 54.86V54.3ZM38.0207 64H40.6807V70.78H38.0207V64ZM31.0407 62.46H47.8007V64.6H31.0407V62.46ZM32.5207 53.2H46.2607V55.3H32.5207V53.2ZM58.5191 55.34H63.2391V57.46H58.5191V55.34ZM58.5191 59.32H63.2991V61.44H58.5191V59.32ZM62.2591 52.26H64.9391V65.92H62.2591V52.26ZM52.6791 68.32H65.3391V70.46H52.6791V68.32ZM52.6791 64.58H55.3391V69.54H52.6791V64.58ZM50.1991 53.48H52.8391V56.28H56.3591V53.48H58.9791V63.04H50.1991V53.48ZM52.8391 58.32V60.92H56.3591V58.32H52.8391ZM81.078 63.78C82.4114 63.78 83.5714 63.92 84.558 64.2C85.5447 64.48 86.3047 64.88 86.838 65.4C87.3847 65.92 87.658 66.5467 87.658 67.28C87.658 68 87.3847 68.62 86.838 69.14C86.3047 69.6733 85.5447 70.08 84.558 70.36C83.5714 70.64 82.4114 70.78 81.078 70.78C79.758 70.78 78.6047 70.64 77.618 70.36C76.6314 70.08 75.8647 69.6733 75.318 69.14C74.7847 68.62 74.518 68 74.518 67.28C74.518 66.5467 74.7847 65.92 75.318 65.4C75.8647 64.88 76.6314 64.48 77.618 64.2C78.6047 63.92 79.758 63.78 81.078 63.78ZM81.078 65.78C80.2514 65.78 79.5447 65.8333 78.958 65.94C78.3714 66.0467 77.9247 66.2133 77.618 66.44C77.3247 66.6667 77.178 66.9467 77.178 67.28C77.178 67.6133 77.3247 67.8933 77.618 68.12C77.9247 68.3333 78.3714 68.5 78.958 68.62C79.5447 68.7267 80.2514 68.78 81.078 68.78C81.918 68.78 82.6314 68.7267 83.218 68.62C83.8047 68.5 84.2514 68.3333 84.558 68.12C84.8647 67.8933 85.018 67.6133 85.018 67.28C85.018 66.9467 84.8647 66.6667 84.558 66.44C84.2514 66.2133 83.8047 66.0467 83.218 65.94C82.6314 65.8333 81.918 65.78 81.078 65.78ZM74.718 53.08H86.458V55.16H74.718V53.08ZM72.858 60.52H89.518V62.62H72.858V60.52ZM79.018 57.28H81.678V61.04H79.018V57.28ZM84.898 53.08H87.558V54.6C87.558 55.3333 87.538 56.1 87.498 56.9C87.458 57.7 87.3047 58.58 87.038 59.54L84.398 59.28C84.6514 58.3333 84.798 57.4933 84.838 56.76C84.878 56.0267 84.898 55.3067 84.898 54.6V53.08ZM103.936 52.26H106.596V61.6H103.936V52.26ZM94.2565 62.42H106.596V67.44H96.8965V69.3H94.2765V65.54H103.956V64.46H94.2565V62.42ZM94.2765 68.58H107.056V70.66H94.2765V68.58ZM95.5565 52.68H97.7565V54.06C97.7565 55.1933 97.5632 56.2733 97.1765 57.3C96.7898 58.3267 96.1965 59.22 95.3965 59.98C94.6098 60.74 93.6098 61.3067 92.3965 61.68L91.1165 59.58C91.8898 59.34 92.5565 59.0267 93.1165 58.64C93.6765 58.2533 94.1365 57.8133 94.4965 57.32C94.8565 56.8267 95.1232 56.3067 95.2965 55.76C95.4698 55.2 95.5565 54.6333 95.5565 54.06V52.68ZM96.0965 52.68H98.2565V54.06C98.2565 54.62 98.3432 55.1667 98.5165 55.7C98.6898 56.22 98.9498 56.7133 99.2965 57.18C99.6432 57.6467 100.09 58.06 100.636 58.42C101.183 58.78 101.83 59.0667 102.576 59.28L101.296 61.36C100.416 61.0933 99.6498 60.7267 98.9965 60.26C98.3432 59.78 97.7965 59.22 97.3565 58.58C96.9298 57.9267 96.6098 57.22 96.3965 56.46C96.1965 55.7 96.0965 54.9 96.0965 54.06V52.68ZM122.315 52.22H124.975V70.8H122.315V52.22ZM114.995 53.52C115.942 53.52 116.782 53.7933 117.515 54.34C118.248 54.8733 118.822 55.64 119.235 56.64C119.662 57.6267 119.875 58.7933 119.875 60.14C119.875 61.5 119.662 62.68 119.235 63.68C118.822 64.6667 118.248 65.4333 117.515 65.98C116.782 66.5133 115.942 66.78 114.995 66.78C114.062 66.78 113.228 66.5133 112.495 65.98C111.762 65.4333 111.182 64.6667 110.755 63.68C110.342 62.68 110.135 61.5 110.135 60.14C110.135 58.7933 110.342 57.6267 110.755 56.64C111.182 55.64 111.762 54.8733 112.495 54.34C113.228 53.7933 114.062 53.52 114.995 53.52ZM114.995 55.94C114.542 55.94 114.142 56.1 113.795 56.42C113.448 56.74 113.175 57.2133 112.975 57.84C112.788 58.4533 112.695 59.22 112.695 60.14C112.695 61.0467 112.788 61.82 112.975 62.46C113.175 63.0867 113.448 63.56 113.795 63.88C114.142 64.2 114.542 64.36 114.995 64.36C115.462 64.36 115.868 64.2 116.215 63.88C116.562 63.56 116.828 63.0867 117.015 62.46C117.215 61.82 117.315 61.0467 117.315 60.14C117.315 59.22 117.215 58.4533 117.015 57.84C116.828 57.2133 116.562 56.74 116.215 56.42C115.868 56.1 115.462 55.94 114.995 55.94ZM135.014 63.1H137.494V64.92H139.334V63.1H141.774V70.58H135.014V63.1ZM137.494 66.84V68.58H139.334V66.84H137.494ZM144.654 62.94H146.654V64.32C146.654 65.2267 146.527 66.1067 146.274 66.96C146.02 67.8 145.607 68.5467 145.034 69.2C144.474 69.8667 143.734 70.38 142.814 70.74L141.514 68.76C142.26 68.4533 142.86 68.0667 143.314 67.6C143.78 67.12 144.12 66.6 144.334 66.04C144.547 65.4667 144.654 64.8933 144.654 64.32V62.94ZM145.254 62.94H147.294V64.32C147.294 64.96 147.394 65.5733 147.594 66.16C147.807 66.7333 148.14 67.2467 148.594 67.7C149.06 68.1533 149.667 68.5067 150.414 68.76L149.094 70.74C148.16 70.4067 147.414 69.92 146.854 69.28C146.294 68.64 145.887 67.9 145.634 67.06C145.38 66.2067 145.254 65.2933 145.254 64.32V62.94ZM142.354 56.22H146.994V58.36H142.354V56.22ZM138.094 52.94C139.027 52.94 139.86 53.1267 140.594 53.5C141.34 53.8733 141.927 54.3867 142.354 55.04C142.78 55.6933 142.994 56.4467 142.994 57.3C142.994 58.1533 142.78 58.9133 142.354 59.58C141.927 60.2333 141.34 60.7467 140.594 61.12C139.86 61.4933 139.027 61.68 138.094 61.68C137.174 61.68 136.34 61.4933 135.594 61.12C134.86 60.7467 134.28 60.2333 133.854 59.58C133.427 58.9133 133.214 58.1533 133.214 57.3C133.214 56.4467 133.427 55.6933 133.854 55.04C134.28 54.3867 134.86 53.8733 135.594 53.5C136.34 53.1267 137.174 52.94 138.094 52.94ZM138.094 55.12C137.64 55.12 137.234 55.2067 136.874 55.38C136.527 55.5533 136.254 55.8067 136.054 56.14C135.854 56.46 135.754 56.8467 135.754 57.3C135.754 57.7533 135.854 58.1467 136.054 58.48C136.254 58.8133 136.527 59.0667 136.874 59.24C137.234 59.4133 137.64 59.5 138.094 59.5C138.547 59.5 138.947 59.4133 139.294 59.24C139.654 59.0667 139.934 58.8133 140.134 58.48C140.334 58.1467 140.434 57.7533 140.434 57.3C140.434 56.8467 140.334 56.46 140.134 56.14C139.934 55.8067 139.654 55.5533 139.294 55.38C138.947 55.2067 138.547 55.12 138.094 55.12ZM145.814 52.26H148.494V62.06H145.814V52.26ZM156.452 53.52C157.372 53.52 158.192 53.7933 158.912 54.34C159.646 54.8733 160.212 55.64 160.612 56.64C161.026 57.6267 161.232 58.7933 161.232 60.14C161.232 61.5 161.026 62.68 160.612 63.68C160.212 64.6667 159.646 65.4333 158.912 65.98C158.192 66.5133 157.372 66.78 156.452 66.78C155.532 66.78 154.712 66.5133 153.992 65.98C153.272 65.4333 152.706 64.6667 152.292 63.68C151.879 62.68 151.672 61.5 151.672 60.14C151.672 58.7933 151.879 57.6267 152.292 56.64C152.706 55.64 153.272 54.8733 153.992 54.34C154.712 53.7933 155.532 53.52 156.452 53.52ZM156.452 55.94C156.012 55.94 155.619 56.1 155.272 56.42C154.939 56.74 154.679 57.2133 154.492 57.84C154.306 58.4533 154.212 59.22 154.212 60.14C154.212 61.0467 154.306 61.82 154.492 62.46C154.679 63.0867 154.939 63.56 155.272 63.88C155.619 64.2 156.012 64.36 156.452 64.36C156.919 64.36 157.319 64.2 157.652 63.88C157.986 63.56 158.246 63.0867 158.432 62.46C158.619 61.82 158.712 61.0467 158.712 60.14C158.712 59.22 158.619 58.4533 158.432 57.84C158.246 57.2133 157.986 56.74 157.652 56.42C157.319 56.1 156.919 55.94 156.452 55.94ZM164.272 52.22H166.932V70.8H164.272V52.22ZM160.452 58.92H165.392V61.04H160.452V58.92ZM173.471 61.66H176.131V66.84H173.471V61.66ZM180.191 61.66H182.851V66.84H180.191V61.66ZM169.791 66.46H186.571V68.62H169.791V66.46ZM178.151 53.16C179.484 53.16 180.671 53.3667 181.711 53.78C182.764 54.1933 183.584 54.7733 184.171 55.52C184.771 56.2533 185.071 57.1267 185.071 58.14C185.071 59.14 184.771 60.0133 184.171 60.76C183.584 61.4933 182.764 62.0667 181.711 62.48C180.671 62.8933 179.484 63.1 178.151 63.1C176.831 63.1 175.644 62.8933 174.591 62.48C173.551 62.0667 172.731 61.4933 172.131 60.76C171.531 60.0133 171.231 59.14 171.231 58.14C171.231 57.1267 171.531 56.2533 172.131 55.52C172.731 54.7733 173.551 54.1933 174.591 53.78C175.644 53.3667 176.831 53.16 178.151 53.16ZM178.151 55.22C177.297 55.22 176.544 55.34 175.891 55.58C175.251 55.8067 174.751 56.1333 174.391 56.56C174.031 56.9867 173.851 57.5133 173.851 58.14C173.851 58.74 174.031 59.26 174.391 59.7C174.751 60.1267 175.251 60.46 175.891 60.7C176.544 60.9267 177.297 61.04 178.151 61.04C179.017 61.04 179.771 60.9267 180.411 60.7C181.064 60.46 181.564 60.1267 181.911 59.7C182.271 59.26 182.451 58.74 182.451 58.14C182.451 57.5133 182.271 56.9867 181.911 56.56C181.564 56.1333 181.064 55.8067 180.411 55.58C179.771 55.34 179.017 55.22 178.151 55.22ZM191.637 54.7812L191.314 64.6543H188.971L188.639 54.7812H191.637ZM188.561 67.7109C188.561 67.2943 188.704 66.9492 188.99 66.6758C189.283 66.3958 189.667 66.2559 190.143 66.2559C190.624 66.2559 191.008 66.3958 191.295 66.6758C191.581 66.9492 191.725 67.2943 191.725 67.7109C191.725 68.1146 191.581 68.4564 191.295 68.7363C191.008 69.0163 190.624 69.1562 190.143 69.1562C189.667 69.1562 189.283 69.0163 188.99 68.7363C188.704 68.4564 188.561 68.1146 188.561 67.7109Z" fill="#A9A9A9"/>
</svg>
