<svg width="27" height="27" viewBox="0 0 27 27" fill="none" xmlns="http://www.w3.org/2000/svg">
<rect x="0.44403" y="0.561217" width="25.7537" height="25.7537" rx="12.8769" fill="white"/>
<rect x="0.44403" y="0.561217" width="25.7537" height="25.7537" rx="12.8769" stroke="#E4E4E4" stroke-width="0.88806"/>
<mask id="mask0_864_3311" style="mask-type:alpha" maskUnits="userSpaceOnUse" x="5" y="5" width="18" height="19">
<rect x="5.0625" y="5.32812" width="17.7612" height="17.7612" fill="#D9D9D9"/>
</mask>
<g mask="url(#mask0_864_3311)">
<path d="M8.01916 20.1299C7.61213 20.1299 7.26369 19.9849 6.97384 19.6951C6.68399 19.4052 6.53906 19.0568 6.53906 18.6498V9.76916C6.53906 9.36213 6.68399 9.01369 6.97384 8.72384C7.26369 8.43399 7.61213 8.28906 8.01916 8.28906H19.86C20.267 8.28906 20.6154 8.43399 20.9053 8.72384C21.1951 9.01369 21.3401 9.36213 21.3401 9.76916V18.6498C21.3401 19.0568 21.1951 19.4052 20.9053 19.6951C20.6154 19.9849 20.267 20.1299 19.86 20.1299H8.01916ZM8.01916 14.2095H19.86V11.2493H8.01916V14.2095Z" fill="#C7C7C7"/>
</g>
</svg>
