<svg width="22" height="22" viewBox="0 0 22 22" fill="none" xmlns="http://www.w3.org/2000/svg">
<mask id="mask0_582_2326" style="mask-type:alpha" maskUnits="userSpaceOnUse" x="0" y="0" width="22" height="22">
<rect x="0.210938" y="0.0703125" width="21.1793" height="21.1793" fill="#D9D9D9"/>
</mask>
<g mask="url(#mask0_582_2326)">
<path d="M11.2418 10.6133C11.6684 10.1426 11.9956 9.60581 12.2236 9.00279C12.4515 8.39977 12.5655 7.77469 12.5655 7.12754C12.5655 6.48039 12.4515 5.85531 12.2236 5.25229C11.9956 4.64927 11.6684 4.11243 11.2418 3.64178C12.1243 3.75944 12.8597 4.1492 13.448 4.81105C14.0363 5.47291 14.3305 6.24507 14.3305 7.12754C14.3305 8.01001 14.0363 8.78217 13.448 9.44403C12.8597 10.1059 12.1243 10.4956 11.2418 10.6133ZM16.0954 17.7172V15.0698C16.0954 14.5403 15.9778 14.0366 15.7424 13.5585C15.5071 13.0805 15.1982 12.6577 14.8158 12.29C15.5659 12.5547 16.2609 12.8967 16.9007 13.3159C17.5405 13.735 17.8604 14.3197 17.8604 15.0698V17.7172H16.0954ZM17.8604 11.5399V9.77495H16.0954V8.01001H17.8604V6.24507H19.6253V8.01001H21.3902V9.77495H19.6253V11.5399H17.8604ZM7.27071 10.6574C6.29999 10.6574 5.46899 10.3118 4.77773 9.62052C4.08646 8.92925 3.74082 8.09826 3.74082 7.12754C3.74082 6.15682 4.08646 5.32583 4.77773 4.63456C5.46899 3.94329 6.29999 3.59766 7.27071 3.59766C8.24142 3.59766 9.07242 3.94329 9.76369 4.63456C10.455 5.32583 10.8006 6.15682 10.8006 7.12754C10.8006 8.09826 10.455 8.92925 9.76369 9.62052C9.07242 10.3118 8.24142 10.6574 7.27071 10.6574ZM0.210938 17.7172V15.2463C0.210938 14.7462 0.339631 14.2866 0.597019 13.8674C0.854406 13.4482 1.19636 13.1283 1.62289 12.9077C2.53478 12.4518 3.46137 12.1098 4.40267 11.8819C5.34398 11.6539 6.29999 11.5399 7.27071 11.5399C8.24142 11.5399 9.19743 11.6539 10.1387 11.8819C11.08 12.1098 12.0066 12.4518 12.9185 12.9077C13.345 13.1283 13.687 13.4482 13.9444 13.8674C14.2018 14.2866 14.3305 14.7462 14.3305 15.2463V17.7172H0.210938Z" fill="#727272"/>
</g>
</svg>
