<svg width="27" height="28" viewBox="0 0 27 28" fill="none" xmlns="http://www.w3.org/2000/svg">
<rect x="0.44403" y="1.12372" width="25.7537" height="25.7537" rx="12.8769" fill="white"/>
<rect x="0.44403" y="1.12372" width="25.7537" height="25.7537" rx="12.8769" stroke="#E4E4E4" stroke-width="0.88806"/>
<mask id="mask0_864_3254" style="mask-type:alpha" maskUnits="userSpaceOnUse" x="4" y="5" width="19" height="19">
<rect x="4.88281" y="5.5625" width="17.7612" height="17.7612" fill="#D9D9D9"/>
</mask>
<g mask="url(#mask0_864_3254)">
<path d="M17.1787 18.6758C17.3426 18.7969 17.4693 18.9206 17.5625 19.0479C17.6928 19.2259 17.7549 19.4155 17.7549 19.6279C17.7548 20.0464 17.5077 20.4576 16.7607 20.8311C16.0162 21.2033 15.0239 21.4043 13.7588 21.4043C12.4935 21.4043 11.5004 21.2033 10.7559 20.8311C10.0092 20.4576 9.7618 20.0463 9.76172 19.6279C9.76172 19.4282 9.8208 19.2421 9.94922 19.0605C10.0357 18.9384 10.1486 18.8228 10.29 18.7129L10.7344 19.1289C10.6475 19.1888 10.5673 19.258 10.498 19.3389L10.2568 19.6201L10.4902 19.9082C10.6308 20.0811 10.832 20.2082 11.0449 20.3076C11.2636 20.4097 11.5304 20.4982 11.8359 20.5762C12.4532 20.7337 13.0948 20.8115 13.7588 20.8115C14.4228 20.8115 15.0667 20.7335 15.6895 20.5762C15.9977 20.4983 16.2662 20.4104 16.4863 20.3086C16.7006 20.2094 16.9037 20.0819 17.0449 19.9082L17.2812 19.6172L17.0342 19.335C16.9509 19.2398 16.8542 19.1606 16.749 19.0928L17.1787 18.6758ZM13.7588 7.49121C14.3076 7.49125 14.8671 7.59181 15.4395 7.79785C16.0013 8.00012 16.5069 8.30296 16.958 8.70898C17.4037 9.11014 17.7745 9.61313 18.0664 10.2256C18.3474 10.8151 18.4951 11.5155 18.4951 12.3379C18.4951 13.3826 18.1098 14.4792 17.291 15.6338C16.5133 16.7304 15.34 17.8752 13.7578 19.0703C12.1762 17.8755 11.0041 16.7301 10.2266 15.6338C9.40775 14.4792 9.02246 13.3826 9.02246 12.3379C9.0225 11.5155 9.17021 10.8151 9.45117 10.2256C9.74308 9.61328 10.113 9.11007 10.5586 8.70898C11.0097 8.30295 11.5153 8.00014 12.0771 7.79785C12.6497 7.59173 13.2099 7.49121 13.7588 7.49121ZM13.7588 10.3027C13.2331 10.3027 12.7719 10.4957 12.3994 10.8682C12.027 11.2406 11.834 11.7018 11.834 12.2275C11.8341 12.7531 12.027 13.2145 12.3994 13.5869C12.7718 13.9592 13.2332 14.1514 13.7588 14.1514C14.2844 14.1513 14.7458 13.9593 15.1182 13.5869C15.4906 13.2145 15.6825 12.7531 15.6826 12.2275C15.6826 11.702 15.4904 11.2406 15.1182 10.8682C14.7458 10.4958 14.2844 10.3028 13.7588 10.3027Z" stroke="#C7C7C7" stroke-width="0.88806"/>
</g>
</svg>
