<svg width="18" height="19" viewBox="0 0 18 19" fill="none" xmlns="http://www.w3.org/2000/svg">
<mask id="mask0_888_2496" style="mask-type:alpha" maskUnits="userSpaceOnUse" x="0" y="0" width="18" height="19">
<rect x="0.117188" y="0.621094" width="17.7612" height="17.7612" fill="#D9D9D9"/>
</mask>
<g mask="url(#mask0_888_2496)">
<path d="M14.8798 16.1646C13.338 16.1646 11.8147 15.8285 10.31 15.1563C8.80521 14.4841 7.43611 13.5313 6.2027 12.2979C4.96928 11.0645 4.01647 9.69538 3.34426 8.19061C2.67204 6.68584 2.33594 5.16257 2.33594 3.6208C2.33594 3.39879 2.40994 3.21377 2.55795 3.06576C2.70596 2.91775 2.89097 2.84375 3.11299 2.84375H6.11019C6.28287 2.84375 6.43705 2.90234 6.57272 3.01951C6.7084 3.13669 6.78857 3.27545 6.81324 3.43579L7.29427 6.02596C7.31894 6.22331 7.31277 6.38982 7.27577 6.5255C7.23877 6.66117 7.17093 6.77835 7.07226 6.87702L5.27764 8.69014C5.52432 9.14651 5.81725 9.58745 6.15644 10.013C6.49563 10.4385 6.86874 10.8486 7.27577 11.2433C7.65813 11.6257 8.05899 11.9803 8.47835 12.3071C8.89771 12.634 9.34174 12.9331 9.81044 13.2044L11.5496 11.4653C11.6606 11.3543 11.8055 11.2711 11.9843 11.2156C12.1632 11.1601 12.3389 11.1446 12.5116 11.1693L15.0648 11.6873C15.2375 11.7367 15.3793 11.8261 15.4903 11.9556C15.6013 12.0851 15.6568 12.23 15.6568 12.3904V15.3876C15.6568 15.6096 15.5828 15.7946 15.4348 15.9426C15.2868 16.0906 15.1018 16.1646 14.8798 16.1646Z" fill="#5C5C5C"/>
</g>
</svg>
