<svg width="10" height="9" viewBox="0 0 10 9" fill="none" xmlns="http://www.w3.org/2000/svg">
<path d="M1.5 0.25H8.5C8.70817 0.25 8.87997 0.32138 9.0293 0.470703C9.17862 0.620026 9.25 0.791831 9.25 1V8C9.25 8.20817 9.17862 8.37997 9.0293 8.5293C8.87997 8.67862 8.70817 8.75 8.5 8.75H1.5C1.29183 8.75 1.12003 8.67862 0.970703 8.5293C0.82138 8.37997 0.75 8.20817 0.75 8V1C0.75 0.791831 0.82138 0.620026 0.970703 0.470703C1.12003 0.32138 1.29183 0.25 1.5 0.25ZM4.2998 4.84668L2.875 3.42188L2.69824 3.59863L1.99805 4.29785L1.82129 4.47461L4.2998 6.95312L4.47656 6.77637L8.00195 3.25195L8.17871 3.0752L7.125 2.02148L4.2998 4.84668Z" fill="#2FB975" fill-opacity="0.78" stroke="#2FB975" stroke-width="0.5"/>
</svg>
