<svg width="12" height="13" viewBox="0 0 12 13" fill="none" xmlns="http://www.w3.org/2000/svg">
<mask id="mask0_719_2409" style="mask-type:alpha" maskUnits="userSpaceOnUse" x="0" y="0" width="12" height="13">
<rect x="0.25" y="0.75" width="11.5" height="11.5" fill="#D9D9D9" stroke="#2FB975" stroke-width="0.5"/>
</mask>
<g mask="url(#mask0_719_2409)">
<path d="M2.5 2.25H9.5C9.70817 2.25 9.87997 2.32138 10.0293 2.4707C10.1786 2.62003 10.25 2.79183 10.25 3V10C10.25 10.2082 10.1786 10.38 10.0293 10.5293C9.87997 10.6786 9.70817 10.75 9.5 10.75H2.5C2.29183 10.75 2.12003 10.6786 1.9707 10.5293C1.82138 10.38 1.75 10.2082 1.75 10V3C1.75 2.79183 1.82138 2.62003 1.9707 2.4707C2.12003 2.32138 2.29183 2.25 2.5 2.25ZM5.2998 6.84668L3.875 5.42188L3.69824 5.59863L2.99805 6.29785L2.82129 6.47461L5.2998 8.95312L5.47656 8.77637L9.00195 5.25195L9.17871 5.0752L8.125 4.02148L5.2998 6.84668Z" fill="#2FB975" fill-opacity="0.78" stroke="#2FB975" stroke-width="0.5"/>
</g>
</svg>
