<svg width="18" height="19" viewBox="0 0 18 19" fill="none" xmlns="http://www.w3.org/2000/svg">
<mask id="mask0_888_2530" style="mask-type:alpha" maskUnits="userSpaceOnUse" x="0" y="0" width="18" height="19">
<rect x="0.117188" y="0.621094" width="17.76" height="17.76" fill="#D9D9D9"/>
</mask>
<g mask="url(#mask0_888_2530)">
<path d="M3.54263 16.9016C3.34529 16.9016 3.16646 16.8214 3.00613 16.6611C2.84579 16.5007 2.76562 16.3219 2.76562 16.1246V14.1821C2.76562 13.0721 3.11096 12.0916 3.80163 11.2406C4.49229 10.3896 5.38029 9.8469 6.46563 9.61256C5.97229 9.9579 5.58996 10.3926 5.31862 10.9168C5.04729 11.441 4.91163 12.0052 4.91163 12.6096V16.1246C4.91163 16.2602 4.93013 16.3959 4.96713 16.5316C5.00413 16.6672 5.06579 16.7906 5.15213 16.9016H3.54263ZM6.26213 16.9016C6.05246 16.9016 5.87054 16.8245 5.71638 16.6703C5.56221 16.5161 5.48513 16.3342 5.48513 16.1246V12.6096C5.48513 11.7462 5.79037 11.0124 6.40088 10.4081C7.01137 9.80373 7.74829 9.50156 8.61163 9.50156H12.1081C12.9715 9.50156 13.7053 9.80373 14.3096 10.4081C14.914 11.0124 15.2161 11.7462 15.2161 12.6096V13.7936C15.2161 14.6569 14.914 15.3907 14.3096 15.9951C13.7053 16.5994 12.9715 16.9016 12.1081 16.9016H6.26213ZM9.00013 7.94756C8.18613 7.94756 7.49546 7.6639 6.92812 7.09656C6.36079 6.52923 6.07713 5.83856 6.07713 5.02456C6.07713 4.21056 6.36079 3.5199 6.92812 2.95256C7.49546 2.38523 8.18613 2.10156 9.00013 2.10156C9.81413 2.10156 10.5048 2.38523 11.0721 2.95256C11.6395 3.5199 11.9231 4.21056 11.9231 5.02456C11.9231 5.83856 11.6395 6.52923 11.0721 7.09656C10.5048 7.6639 9.81413 7.94756 9.00013 7.94756Z" fill="#5C5C5C"/>
</g>
</svg>
