<svg width="24" height="24" viewBox="0 0 24 24" fill="none" xmlns="http://www.w3.org/2000/svg">
<mask id="mask0_750_2218" style="mask-type:alpha" maskUnits="userSpaceOnUse" x="0" y="0" width="24" height="24">
<rect width="24" height="24" fill="#D9D9D9"/>
</mask>
<g mask="url(#mask0_750_2218)">
<path d="M4.62813 22C4.36146 22 4.11979 21.8917 3.90313 21.675C3.68646 21.4583 3.57812 21.2167 3.57812 20.95V18.325C3.57812 16.825 4.04479 15.5 4.97812 14.35C5.91146 13.2 7.11146 12.4667 8.57812 12.15C7.91146 12.6167 7.39479 13.2042 7.02813 13.9125C6.66146 14.6208 6.47813 15.3833 6.47813 16.2V20.95C6.47813 21.1333 6.50313 21.3167 6.55313 21.5C6.60313 21.6833 6.68646 21.85 6.80313 22H4.62813ZM8.30312 22C8.01979 22 7.77396 21.8958 7.56562 21.6875C7.35729 21.4792 7.25312 21.2333 7.25312 20.95V16.2C7.25312 15.0333 7.66563 14.0417 8.49062 13.225C9.31562 12.4083 10.3115 12 11.4781 12H16.2031C17.3698 12 18.3615 12.4083 19.1781 13.225C19.9948 14.0417 20.4031 15.0333 20.4031 16.2V17.8C20.4031 18.9667 19.9948 19.9583 19.1781 20.775C18.3615 21.5917 17.3698 22 16.2031 22H8.30312ZM12.0031 9.9C10.9031 9.9 9.96979 9.51667 9.20312 8.75C8.43646 7.98333 8.05312 7.05 8.05312 5.95C8.05312 4.85 8.43646 3.91667 9.20312 3.15C9.96979 2.38333 10.9031 2 12.0031 2C13.1031 2 14.0365 2.38333 14.8031 3.15C15.5698 3.91667 15.9531 4.85 15.9531 5.95C15.9531 7.05 15.5698 7.98333 14.8031 8.75C14.0365 9.51667 13.1031 9.9 12.0031 9.9Z" fill="#3C3C3C"/>
</g>
</svg>
