<svg width="18" height="19" viewBox="0 0 18 19" fill="none" xmlns="http://www.w3.org/2000/svg">
<mask id="mask0_888_2519" style="mask-type:alpha" maskUnits="userSpaceOnUse" x="0" y="0" width="18" height="19">
<rect y="0.621094" width="17.7612" height="17.7612" fill="#D9D9D9"/>
</mask>
<g mask="url(#mask0_888_2519)">
<path d="M2.95666 15.4228C2.54963 15.4228 2.20119 15.2779 1.91134 14.988C1.62149 14.6982 1.47656 14.3498 1.47656 13.9427V5.06213C1.47656 4.6551 1.62149 4.30666 1.91134 4.01681C2.20119 3.72696 2.54963 3.58203 2.95666 3.58203H14.7975C15.2045 3.58203 15.5529 3.72696 15.8428 4.01681C16.1326 4.30666 16.2776 4.6551 16.2776 5.06213V13.9427C16.2776 14.3498 16.1326 14.6982 15.8428 14.988C15.5529 15.2779 15.2045 15.4228 14.7975 15.4228H2.95666ZM2.95666 9.50243H14.7975V6.54223H2.95666V9.50243Z" fill="#5C5C5C"/>
</g>
</svg>
