<svg width="27" height="28" viewBox="0 0 27 28" fill="none" xmlns="http://www.w3.org/2000/svg">
<rect x="0.623717" y="0.873717" width="25.7537" height="25.7537" rx="12.8769" fill="white"/>
<rect x="0.623717" y="0.873717" width="25.7537" height="25.7537" rx="12.8769" stroke="#E4E4E4" stroke-width="0.88806"/>
<mask id="mask0_719_2308" style="mask-type:alpha" maskUnits="userSpaceOnUse" x="5" y="5" width="18" height="19">
<rect x="5.0625" y="5.3125" width="17.7612" height="17.7612" fill="#D9D9D9"/>
</mask>
<g mask="url(#mask0_719_2308)">
<path d="M17.3584 18.4258C17.5223 18.5469 17.649 18.6706 17.7422 18.7979C17.8725 18.9759 17.9346 19.1655 17.9346 19.3779C17.9345 19.7964 17.6874 20.2076 16.9404 20.5811C16.1959 20.9533 15.2036 21.1543 13.9385 21.1543C12.6732 21.1543 11.6801 20.9533 10.9355 20.5811C10.1888 20.2076 9.94149 19.7963 9.94141 19.3779C9.94141 19.1782 10.0005 18.9921 10.1289 18.8105C10.2154 18.6884 10.3282 18.5728 10.4697 18.4629L10.9141 18.8789C10.8272 18.9388 10.747 19.008 10.6777 19.0889L10.4365 19.3701L10.6699 19.6582C10.8104 19.8311 11.0117 19.9582 11.2246 20.0576C11.4433 20.1597 11.7101 20.2482 12.0156 20.3262C12.6329 20.4837 13.2744 20.5615 13.9385 20.5615C14.6025 20.5615 15.2464 20.4835 15.8691 20.3262C16.1774 20.2483 16.4459 20.1604 16.666 20.0586C16.8803 19.9594 17.0834 19.8319 17.2246 19.6582L17.4609 19.3672L17.2139 19.085C17.1306 18.9898 17.0339 18.9106 16.9287 18.8428L17.3584 18.4258ZM13.9385 7.24121C14.4873 7.24125 15.0468 7.34181 15.6191 7.54785C16.181 7.75012 16.6865 8.05296 17.1377 8.45898C17.5834 8.86014 17.9542 9.36313 18.2461 9.97559C18.5271 10.5651 18.6748 11.2655 18.6748 12.0879C18.6748 13.1326 18.2895 14.2292 17.4707 15.3838C16.693 16.4804 15.5196 17.6252 13.9375 18.8203C12.3559 17.6255 11.1838 16.4801 10.4062 15.3838C9.58744 14.2292 9.20215 13.1326 9.20215 12.0879C9.20219 11.2655 9.3499 10.5651 9.63086 9.97559C9.92276 9.36328 10.2927 8.86007 10.7383 8.45898C11.1894 8.05295 11.695 7.75014 12.2568 7.54785C12.8294 7.34173 13.3895 7.24121 13.9385 7.24121ZM13.9385 10.0527C13.4127 10.0527 12.9516 10.2457 12.5791 10.6182C12.2066 10.9906 12.0137 11.4518 12.0137 11.9775C12.0137 12.5031 12.2067 12.9645 12.5791 13.3369C12.9515 13.7092 13.4129 13.9014 13.9385 13.9014C14.4641 13.9013 14.9255 13.7093 15.2979 13.3369C15.6702 12.9645 15.8622 12.5031 15.8623 11.9775C15.8623 11.452 15.6701 10.9906 15.2979 10.6182C14.9255 10.2458 14.4641 10.0528 13.9385 10.0527Z" stroke="#C7C7C7" stroke-width="0.88806"/>
</g>
</svg>
