<svg width="205" height="41" viewBox="0 0 205 41" fill="none" xmlns="http://www.w3.org/2000/svg">
<path d="M121.945 32.5292V8.15625H144.005V12.4049H128.867V18.2125H142.87V22.4611H128.867V28.2806H144.069V32.5292H121.945Z" fill="white"/>
<path d="M116.984 16.6904H109.982C109.855 16.016 109.593 15.417 109.199 14.8933C108.805 14.3618 108.299 13.9095 107.681 13.5366C107.062 13.1637 106.348 12.8781 105.539 12.6798C104.739 12.4814 103.871 12.3823 102.933 12.3823C101.239 12.3823 99.7626 12.6956 98.5052 13.3224C97.2477 13.9413 96.2726 14.8457 95.5799 16.0358C94.8872 17.218 94.5409 18.654 94.5409 20.3439C94.5409 22.0815 94.8872 23.5413 95.5799 24.7235C96.2832 25.9056 97.2637 26.7982 98.5211 27.4012C99.7786 28.0041 101.233 28.3056 102.885 28.3056C103.812 28.3056 104.67 28.2144 105.459 28.0319C106.258 27.8494 106.967 27.5836 107.585 27.2345C108.203 26.8775 108.714 26.4451 109.119 25.9373C109.535 25.4296 109.823 24.8504 109.982 24.1998L116.984 24.2236C116.803 25.3423 116.35 26.4213 115.625 27.4607C114.911 28.4921 113.947 29.4164 112.732 30.2336C111.528 31.0428 110.089 31.6855 108.416 32.1615C106.753 32.6296 104.873 32.8637 102.773 32.8637C99.8532 32.8637 97.2423 32.3717 94.9405 31.3879C92.6493 30.4041 90.8377 28.98 89.5056 27.1155C88.1842 25.2511 87.5234 22.9939 87.5234 20.3439C87.5234 17.6861 88.1948 15.4249 89.5376 13.5604C90.8803 11.696 92.7026 10.2758 95.0044 9.29993C97.3063 8.31612 99.8959 7.82422 102.773 7.82422C104.67 7.82422 106.428 8.02257 108.048 8.41926C109.679 8.81596 111.123 9.39513 112.38 10.1568C113.638 10.9105 114.661 11.8348 115.449 12.9297C116.249 14.0246 116.76 15.2781 116.984 16.6904Z" fill="white"/>
<path d="M61.6046 32.5292H54.1875L65.4889 8.15625H74.4086L85.694 32.5292H78.2769L70.0766 13.7259H69.8209L61.6046 32.5292ZM61.141 22.949H78.6606V26.9715H61.141V22.949Z" fill="white"/>
<path d="M30.5938 32.5292V8.15625H43.5097C45.9927 8.15625 48.108 8.50931 49.8557 9.21543C51.6034 9.91361 52.9355 10.8855 53.852 12.1311C54.7791 13.3688 55.2427 14.7969 55.2427 16.4155C55.2427 18.034 54.7738 19.4621 53.836 20.6998C52.8982 21.9375 51.5395 22.9014 49.7598 23.5917C47.9908 24.2819 45.8488 24.6271 43.3338 24.6271H35.1015V20.4975H42.2149C43.547 20.4975 44.6446 20.3269 45.5078 19.9857C46.3816 19.6366 47.0317 19.1566 47.458 18.5457C47.8949 17.9269 48.1133 17.2168 48.1133 16.4155C48.1133 15.6062 47.8949 14.9001 47.458 14.2971C47.0317 13.6862 46.3816 13.2141 45.5078 12.8809C44.6339 12.5397 43.5256 12.3692 42.1829 12.3692H37.5153V32.5292H30.5938Z" fill="white"/>
<path d="M18.8613 15.1671C18.7334 14.2071 18.1846 13.4613 17.2148 12.9297C16.245 12.3981 14.9289 12.1323 13.2665 12.1323C12.1369 12.1323 11.1831 12.2513 10.4052 12.4894C9.62724 12.7194 9.03046 13.0408 8.61485 13.4533C8.2099 13.8659 8.00742 14.334 8.00742 14.8576C7.98611 15.294 8.10866 15.6748 8.37508 16.0001C8.65215 16.3254 9.03046 16.6071 9.51001 16.8451C9.98956 17.0752 10.5437 17.2775 11.1725 17.452C11.8012 17.6186 12.4726 17.7614 13.1866 17.8805L16.1278 18.4041C17.5558 18.6421 18.8666 18.9595 20.0601 19.3562C21.2537 19.7529 22.2874 20.2408 23.1612 20.82C24.0351 21.3991 24.7118 22.0815 25.1913 22.8669C25.6815 23.6524 25.932 24.5529 25.9426 25.5684C25.932 27.06 25.4204 28.3532 24.4081 29.4481C23.4063 30.535 21.957 31.38 20.0601 31.983C18.1739 32.578 15.8987 32.8756 13.2345 32.8756C10.5917 32.8756 8.28982 32.5741 6.32899 31.9711C4.37882 31.3681 2.85491 30.4755 1.75727 29.2934C0.670291 28.1033 0.100159 26.6316 0.046875 24.8782H6.7446C6.8192 25.6954 7.13357 26.3777 7.68772 26.9251C8.25253 27.4646 9.00382 27.8732 9.94161 28.1509C10.8901 28.4207 11.9611 28.5555 13.1546 28.5555C14.3268 28.5555 15.3446 28.4286 16.2077 28.1747C17.0816 27.9208 17.7583 27.5678 18.2378 27.1155C18.7174 26.6633 18.9572 26.1436 18.9572 25.5565C18.9572 25.0091 18.7387 24.5489 18.3018 24.176C17.8755 23.8031 17.2468 23.4858 16.4155 23.2239C15.595 22.9621 14.5879 22.7241 13.3944 22.5099L9.82971 21.8434C7.06963 21.3436 4.89034 20.5621 3.29184 19.499C1.69333 18.4358 0.89941 17.0038 0.910067 15.2028C0.89941 13.727 1.42692 12.4378 2.49258 11.335C3.56891 10.2322 5.04486 9.37133 6.92044 8.75249C8.79602 8.13364 10.9274 7.82422 13.3145 7.82422C15.7442 7.82422 17.8649 8.13364 19.6765 8.75249C21.4988 9.37133 22.9161 10.2322 23.9285 11.335C24.9409 12.4378 25.4631 13.7151 25.495 15.1671H18.8613Z" fill="white"/>
<rect x="155.57" width="23.0065" height="36.3503" rx="11.5033" fill="#454545"/>
<circle cx="167.078" cy="23.469" r="8.74248" fill="#F2D406"/>
<path d="M202.644 8.62702V33H198.193L187.589 17.6598H187.411V33H182.257V8.62702H186.78L197.3 23.9553H197.514V8.62702H202.644Z" fill="white"/>
</svg>
