<svg width="205" height="41" viewBox="0 0 205 41" fill="none" xmlns="http://www.w3.org/2000/svg">
<path d="M121.898 32.5292V8.15625H143.958V12.4049H128.82V18.2125H142.823V22.4611H128.82V28.2806H144.022V32.5292H121.898Z" fill="#2FB975"/>
<path d="M116.937 16.6904H109.936C109.808 16.016 109.547 15.417 109.152 14.8933C108.758 14.3618 108.252 13.9095 107.634 13.5366C107.016 13.1637 106.302 12.8781 105.492 12.6798C104.692 12.4814 103.824 12.3823 102.886 12.3823C101.192 12.3823 99.7158 12.6956 98.4583 13.3224C97.2008 13.9413 96.2257 14.8457 95.533 16.0358C94.8403 17.218 94.494 18.654 94.494 20.3439C94.494 22.0815 94.8403 23.5413 95.533 24.7235C96.2364 25.9056 97.2168 26.7982 98.4743 27.4012C99.7318 28.0041 101.186 28.3056 102.838 28.3056C103.765 28.3056 104.623 28.2144 105.412 28.0319C106.211 27.8494 106.92 27.5836 107.538 27.2345C108.156 26.8775 108.667 26.4451 109.072 25.9373C109.488 25.4296 109.776 24.8504 109.936 24.1998L116.937 24.2236C116.756 25.3423 116.303 26.4213 115.578 27.4607C114.864 28.4921 113.9 29.4164 112.685 30.2336C111.481 31.0428 110.042 31.6855 108.369 32.1615C106.707 32.6296 104.826 32.8637 102.726 32.8637C99.8063 32.8637 97.1955 32.3717 94.8936 31.3879C92.6024 30.4041 90.7908 28.98 89.4587 27.1155C88.1373 25.2511 87.4766 22.9939 87.4766 20.3439C87.4766 17.6861 88.1479 15.4249 89.4907 13.5604C90.8334 11.696 92.6557 10.2758 94.9576 9.29993C97.2594 8.31612 99.849 7.82422 102.726 7.82422C104.623 7.82422 106.382 8.02257 108.001 8.41926C109.632 8.81596 111.076 9.39513 112.333 10.1568C113.591 10.9105 114.614 11.8348 115.402 12.9297C116.202 14.0246 116.713 15.2781 116.937 16.6904Z" fill="#2FB975"/>
<path d="M61.5577 32.5292H54.1406L65.442 8.15625H74.3617L85.6471 32.5292H78.2301L70.0297 13.7259H69.774L61.5577 32.5292ZM61.0941 22.949H78.6137V26.9715H61.0941V22.949Z" fill="#2FB975"/>
<path d="M30.5469 32.5292V8.15625H43.4628C45.9458 8.15625 48.0611 8.50931 49.8088 9.21543C51.5565 9.91361 52.8886 10.8855 53.8051 12.1311C54.7322 13.3688 55.1958 14.7969 55.1958 16.4155C55.1958 18.034 54.7269 19.4621 53.7891 20.6998C52.8513 21.9375 51.4926 22.9014 49.7129 23.5917C47.9439 24.2819 45.8019 24.6271 43.2869 24.6271H35.0547V20.4975H42.168C43.5001 20.4975 44.5977 20.3269 45.4609 19.9857C46.3348 19.6366 46.9848 19.1566 47.4111 18.5457C47.848 17.9269 48.0665 17.2168 48.0665 16.4155C48.0665 15.6062 47.848 14.9001 47.4111 14.2971C46.9848 13.6862 46.3348 13.2141 45.4609 12.8809C44.5871 12.5397 43.4788 12.3692 42.136 12.3692H37.4684V32.5292H30.5469Z" fill="#2FB975"/>
<path d="M18.8144 15.1671C18.6865 14.2071 18.1377 13.4613 17.1679 12.9297C16.1982 12.3981 14.8821 12.1323 13.2196 12.1323C12.09 12.1323 11.1362 12.2513 10.3583 12.4894C9.58036 12.7194 8.98359 13.0408 8.56798 13.4533C8.16302 13.8659 7.96055 14.334 7.96055 14.8576C7.93923 15.294 8.06178 15.6748 8.3282 16.0001C8.60528 16.3254 8.98359 16.6071 9.46314 16.8451C9.94269 17.0752 10.4968 17.2775 11.1256 17.452C11.7543 17.6186 12.4257 17.7614 13.1397 17.8805L16.0809 18.4041C17.5089 18.6421 18.8197 18.9595 20.0133 19.3562C21.2068 19.7529 22.2405 20.2408 23.1144 20.82C23.9882 21.3991 24.6649 22.0815 25.1445 22.8669C25.6347 23.6524 25.8851 24.5529 25.8957 25.5684C25.8851 27.06 25.3736 28.3532 24.3612 29.4481C23.3595 30.535 21.9102 31.38 20.0133 31.983C18.127 32.578 15.8518 32.8756 13.1877 32.8756C10.5448 32.8756 8.24295 32.5741 6.28212 31.9711C4.33194 31.3681 2.80804 30.4755 1.7104 29.2934C0.623416 28.1033 0.0532835 26.6316 0 24.8782H6.69773C6.77233 25.6954 7.0867 26.3777 7.64085 26.9251C8.20565 27.4646 8.95695 27.8732 9.89473 28.1509C10.8432 28.4207 11.9142 28.5555 13.1077 28.5555C14.28 28.5555 15.2977 28.4286 16.1609 28.1747C17.0347 27.9208 17.7114 27.5678 18.191 27.1155C18.6705 26.6633 18.9103 26.1436 18.9103 25.5565C18.9103 25.0091 18.6918 24.5489 18.2549 24.176C17.8286 23.8031 17.1999 23.4858 16.3687 23.2239C15.5481 22.9621 14.541 22.7241 13.3475 22.5099L9.78284 21.8434C7.02276 21.3436 4.84346 20.5621 3.24496 19.499C1.64646 18.4358 0.852535 17.0038 0.863192 15.2028C0.852535 13.727 1.38004 12.4378 2.44571 11.335C3.52204 10.2322 4.99799 9.37133 6.87356 8.75249C8.74914 8.13364 10.8805 7.82422 13.2676 7.82422C15.6973 7.82422 17.818 8.13364 19.6296 8.75249C21.4519 9.37133 22.8693 10.2322 23.8816 11.335C24.894 12.4378 25.4162 13.7151 25.4482 15.1671H18.8144Z" fill="#2FB975"/>
<rect x="155.523" width="23.0065" height="36.3503" rx="11.5033" fill="#001008"/>
<circle cx="167.032" cy="23.469" r="8.74248" fill="#F2D406"/>
<path d="M202.597 8.62702V33H198.146L187.542 17.6598H187.364V33H182.211V8.62702H186.733L197.253 23.9553H197.467V8.62702H202.597Z" fill="#2FB975"/>
</svg>
