<svg width="27" height="27" viewBox="0 0 27 27" fill="none" xmlns="http://www.w3.org/2000/svg">
<rect x="0.44403" y="0.561217" width="25.7537" height="25.7537" rx="12.8769" fill="white"/>
<rect x="0.44403" y="0.561217" width="25.7537" height="25.7537" rx="12.8769" stroke="#E4E4E4" stroke-width="0.88806"/>
<mask id="mask0_864_3318" style="mask-type:alpha" maskUnits="userSpaceOnUse" x="5" y="4" width="18" height="19">
<rect x="5" y="4.26172" width="17.76" height="17.76" fill="#D9D9D9"/>
</mask>
<g mask="url(#mask0_864_3318)">
<path d="M8.42544 20.5422C8.2281 20.5422 8.04927 20.462 7.88894 20.3017C7.7286 20.1414 7.64844 19.9625 7.64844 19.7652V17.8227C7.64844 16.7127 7.99377 15.7322 8.68444 14.8812C9.3751 14.0302 10.2631 13.4875 11.3484 13.2532C10.8551 13.5985 10.4728 14.0333 10.2014 14.5574C9.9301 15.0816 9.79444 15.6459 9.79444 16.2502V19.7652C9.79444 19.9009 9.81294 20.0365 9.84994 20.1722C9.88694 20.3079 9.9486 20.4312 10.0349 20.5422H8.42544ZM11.1449 20.5422C10.9353 20.5422 10.7534 20.4651 10.5992 20.3109C10.445 20.1568 10.3679 19.9749 10.3679 19.7652V16.2502C10.3679 15.3869 10.6732 14.653 11.2837 14.0487C11.8942 13.4444 12.6311 13.1422 13.4944 13.1422H16.9909C17.8543 13.1422 18.5881 13.4444 19.1924 14.0487C19.7968 14.653 20.0989 15.3869 20.0989 16.2502V17.4342C20.0989 18.2975 19.7968 19.0314 19.1924 19.6357C18.5881 20.24 17.8543 20.5422 16.9909 20.5422H11.1449ZM13.8829 11.5882C13.0689 11.5882 12.3783 11.3045 11.8109 10.7372C11.2436 10.1699 10.9599 9.47919 10.9599 8.66519C10.9599 7.85119 11.2436 7.16052 11.8109 6.59319C12.3783 6.02585 13.0689 5.74219 13.8829 5.74219C14.6969 5.74219 15.3876 6.02585 15.9549 6.59319C16.5223 7.16052 16.8059 7.85119 16.8059 8.66519C16.8059 9.47919 16.5223 10.1699 15.9549 10.7372C15.3876 11.3045 14.6969 11.5882 13.8829 11.5882Z" fill="#C7C7C7"/>
</g>
</svg>
