<svg width="27" height="28" viewBox="0 0 27 28" fill="none" xmlns="http://www.w3.org/2000/svg">
<rect x="0.623717" y="1.38153" width="25.7537" height="25.7537" rx="12.8769" fill="white"/>
<rect x="0.623717" y="1.38153" width="25.7537" height="25.7537" rx="12.8769" stroke="#E4E4E4" stroke-width="0.88806"/>
<mask id="mask0_719_2327" style="mask-type:alpha" maskUnits="userSpaceOnUse" x="5" y="5" width="18" height="18">
<rect x="5" y="5" width="17.76" height="17.76" fill="#D9D9D9"/>
</mask>
<g mask="url(#mask0_719_2327)">
<path d="M8.42544 21.2805C8.2281 21.2805 8.04927 21.2003 7.88894 21.04C7.7286 20.8796 7.64844 20.7008 7.64844 20.5035V18.561C7.64844 17.451 7.99377 16.4705 8.68444 15.6195C9.3751 14.7685 10.2631 14.2258 11.3484 13.9915C10.8551 14.3368 10.4728 14.7716 10.2014 15.2957C9.9301 15.8199 9.79444 16.3841 9.79444 16.9885V20.5035C9.79444 20.6391 9.81294 20.7748 9.84994 20.9105C9.88694 21.0461 9.9486 21.1695 10.0349 21.2805H8.42544ZM11.1449 21.2805C10.9353 21.2805 10.7534 21.2034 10.5992 21.0492C10.445 20.8951 10.3679 20.7131 10.3679 20.5035V16.9885C10.3679 16.1251 10.6732 15.3913 11.2837 14.787C11.8942 14.1826 12.6311 13.8805 13.4944 13.8805H16.9909C17.8543 13.8805 18.5881 14.1826 19.1924 14.787C19.7968 15.3913 20.0989 16.1251 20.0989 16.9885V18.1725C20.0989 19.0358 19.7968 19.7696 19.1924 20.374C18.5881 20.9783 17.8543 21.2805 16.9909 21.2805H11.1449ZM13.8829 12.3265C13.0689 12.3265 12.3783 12.0428 11.8109 11.4755C11.2436 10.9081 10.9599 10.2175 10.9599 9.40347C10.9599 8.58947 11.2436 7.8988 11.8109 7.33147C12.3783 6.76414 13.0689 6.48047 13.8829 6.48047C14.6969 6.48047 15.3876 6.76414 15.9549 7.33147C16.5223 7.8988 16.8059 8.58947 16.8059 9.40347C16.8059 10.2175 16.5223 10.9081 15.9549 11.4755C15.3876 12.0428 14.6969 12.3265 13.8829 12.3265Z" fill="#C7C7C7"/>
</g>
</svg>
