<svg width="18" height="19" viewBox="0 0 18 19" fill="none" xmlns="http://www.w3.org/2000/svg">
<mask id="mask0_888_2560" style="mask-type:alpha" maskUnits="userSpaceOnUse" x="0" y="0" width="18" height="19">
<rect y="0.621094" width="17.76" height="17.76" fill="#D9D9D9"/>
</mask>
<g mask="url(#mask0_888_2560)">
<path d="M8.21056 14.6816H9.50556V13.7566C10.1222 13.6456 10.6526 13.4051 11.0966 13.0351C11.5406 12.6651 11.7626 12.1162 11.7626 11.3886C11.7626 10.8706 11.6146 10.3957 11.3186 9.96406C11.0226 9.5324 10.4306 9.15623 9.54256 8.83556C8.80256 8.5889 8.29073 8.37306 8.00706 8.18806C7.7234 8.00306 7.58156 7.75023 7.58156 7.42956C7.58156 7.1089 7.69565 6.85606 7.92381 6.67106C8.15198 6.48606 8.4819 6.39356 8.91356 6.39356C9.30823 6.39356 9.61656 6.48915 9.83856 6.68031C10.0606 6.87148 10.2209 7.1089 10.3196 7.39256L11.5036 6.91156C11.3679 6.4799 11.1181 6.10373 10.7543 5.78306C10.3905 5.4624 9.98656 5.28356 9.54256 5.24656V4.32156H8.24756V5.24656C7.6309 5.38223 7.1499 5.65356 6.80456 6.06056C6.45923 6.46756 6.28656 6.9239 6.28656 7.42956C6.28656 8.00923 6.45615 8.4779 6.79531 8.83556C7.13448 9.19323 7.6679 9.50156 8.39556 9.76056C9.17256 10.0442 9.71215 10.2971 10.0143 10.5191C10.3165 10.7411 10.4676 11.0309 10.4676 11.3886C10.4676 11.7956 10.3226 12.0946 10.0328 12.2858C9.74298 12.477 9.39456 12.5726 8.98756 12.5726C8.58056 12.5726 8.21981 12.4461 7.90531 12.1933C7.59081 11.9405 7.35956 11.5612 7.21156 11.0556L5.99056 11.5366C6.16323 12.1286 6.43148 12.6065 6.79531 12.9703C7.15915 13.3341 7.6309 13.5839 8.21056 13.7196V14.6816ZM8.87656 16.9016C7.8529 16.9016 6.8909 16.7073 5.99056 16.3188C5.09023 15.9303 4.30706 15.4031 3.64106 14.7371C2.97506 14.0711 2.44781 13.2879 2.05931 12.3876C1.67081 11.4872 1.47656 10.5252 1.47656 9.50156C1.47656 8.4779 1.67081 7.5159 2.05931 6.61556C2.44781 5.71523 2.97506 4.93206 3.64106 4.26606C4.30706 3.60006 5.09023 3.07281 5.99056 2.68431C6.8909 2.29581 7.8529 2.10156 8.87656 2.10156C9.90023 2.10156 10.8622 2.29581 11.7626 2.68431C12.6629 3.07281 13.4461 3.60006 14.1121 4.26606C14.7781 4.93206 15.3053 5.71523 15.6938 6.61556C16.0823 7.5159 16.2766 8.4779 16.2766 9.50156C16.2766 10.5252 16.0823 11.4872 15.6938 12.3876C15.3053 13.2879 14.7781 14.0711 14.1121 14.7371C13.4461 15.4031 12.6629 15.9303 11.7626 16.3188C10.8622 16.7073 9.90023 16.9016 8.87656 16.9016Z" fill="#5C5C5C"/>
</g>
</svg>
