<svg width="28" height="28" viewBox="0 0 28 28" fill="none" xmlns="http://www.w3.org/2000/svg">
<g clip-path="url(#clip0_719_2340)">
<rect x="0.5" y="0.546875" width="26.6418" height="26.6418" rx="13.3209" fill="white"/>
<mask id="mask0_719_2340" style="mask-type:alpha" maskUnits="userSpaceOnUse" x="4" y="5" width="19" height="18">
<rect x="4.63281" y="5" width="17.76" height="17.76" fill="#D9D9D9"/>
</mask>
<g mask="url(#mask0_719_2340)">
<path d="M7.58938 19.8009C7.18237 19.8009 6.83396 19.656 6.54413 19.3662C6.25429 19.0764 6.10938 18.7279 6.10938 18.3209V9.44094C6.10938 9.03394 6.25429 8.68552 6.54413 8.39569C6.83396 8.10585 7.18237 7.96094 7.58938 7.96094H15.7294C15.9637 7.96094 16.1857 8.01335 16.3954 8.11819C16.605 8.22302 16.7777 8.36794 16.9134 8.55294L20.9094 13.8809L16.9134 19.2089C16.7777 19.3939 16.605 19.5389 16.3954 19.6437C16.1857 19.7485 15.9637 19.8009 15.7294 19.8009H7.58938Z" fill="#C7C7C7"/>
</g>
</g>
<rect x="0.94403" y="0.990905" width="25.7537" height="25.7537" rx="12.8769" stroke="#E4E4E4" stroke-width="0.88806"/>
<defs>
<clipPath id="clip0_719_2340">
<rect x="0.5" y="0.546875" width="26.6418" height="26.6418" rx="13.3209" fill="white"/>
</clipPath>
</defs>
</svg>
