<svg width="110" height="17" viewBox="0 0 110 17" fill="none" xmlns="http://www.w3.org/2000/svg">
<path d="M26.3539 11.8332H25.2399V7.7125H24.4701V11.4347H23.3833V3.72765H24.4701V6.77968H25.2399V3.5918H26.3539V11.8332ZM19.5796 4.5065H20.7388V8.81286C21.5117 8.79173 22.2392 8.71475 22.9215 8.58192L23.0392 9.57813C22.0641 9.74719 21.0981 9.8287 20.1411 9.82266H19.5796V4.5065ZM33.7621 6.75251H34.9304V7.70344H33.7621V11.8151H32.6028V3.5918H33.7621V6.75251ZM27.1689 9.50568C28.1501 9.01361 28.9048 8.43098 29.4331 7.75778C29.9614 7.08458 30.2798 6.29063 30.3885 5.37592H27.6399V4.43405H31.5613C31.5553 5.74724 31.2595 6.90647 30.6738 7.91174C30.0912 8.91701 29.1402 9.74417 27.821 10.3932L27.1689 9.50568ZM44.3581 7.78495H43.208V5.73818H41.6593V4.82348H43.208V3.5918H44.3581V7.78495ZM37.3484 6.93364C37.7892 6.80383 38.1575 6.61364 38.4533 6.36308C38.7492 6.11252 38.968 5.82422 39.1099 5.49819C39.2548 5.17215 39.3288 4.8265 39.3318 4.46122V3.86349H40.5001V4.46122C40.4971 4.79933 40.5635 5.12234 40.6993 5.43026C40.8352 5.73517 41.0435 6.00686 41.3242 6.24535C41.608 6.48082 41.9612 6.66195 42.3838 6.78874L41.7771 7.67627C41.3454 7.54042 40.974 7.34118 40.6631 7.07854C40.3522 6.81289 40.1046 6.49893 39.9205 6.13667C39.7333 6.54421 39.4752 6.8944 39.1461 7.18722C38.8171 7.48005 38.4171 7.70042 37.9462 7.84834L37.3484 6.93364ZM38.879 8.1291H44.3581V10.3298H40.0291V10.837H44.5936V11.7426H38.888V9.48757H43.217V9.01663H38.879V8.1291ZM52.3731 8.4823H51.223V6.53515H49.9369V5.60234H51.223V3.5918H52.3731V8.4823ZM45.3725 7.57665C45.8042 7.43175 46.1679 7.22496 46.4638 6.95628C46.7596 6.68761 46.9815 6.38572 47.1294 6.05063C47.2774 5.71554 47.3558 5.36989 47.3649 5.01367H45.7076V4.0899H50.1815V5.01367H48.5422C48.5513 5.34574 48.6253 5.66573 48.7641 5.97365C48.903 6.27855 49.1128 6.55327 49.3936 6.79779C49.6773 7.04232 50.0245 7.2325 50.435 7.36835L49.8645 8.274C49.4237 8.13211 49.0434 7.9208 48.7234 7.64005C48.4064 7.35628 48.1558 7.0242 47.9717 6.64383C47.7845 7.07552 47.5234 7.45137 47.1883 7.77136C46.8532 8.08834 46.4472 8.32834 45.9702 8.49135L45.3725 7.57665ZM46.7219 10.2574C46.7219 9.92832 46.8351 9.64455 47.0615 9.40606C47.2909 9.16455 47.6185 8.9804 48.0441 8.85361C48.4698 8.72682 48.9739 8.66343 49.5566 8.66343C50.1422 8.66343 50.6479 8.72682 51.0735 8.85361C51.4992 8.9804 51.8267 9.16304 52.0562 9.40153C52.2856 9.64002 52.4003 9.9253 52.4003 10.2574C52.4003 10.5894 52.2856 10.8732 52.0562 11.1087C51.8267 11.3472 51.4992 11.5283 51.0735 11.6521C50.6479 11.7789 50.1422 11.8423 49.5566 11.8423C48.9739 11.8423 48.4698 11.7789 48.0441 11.6521C47.6185 11.5283 47.2909 11.3472 47.0615 11.1087C46.8351 10.8702 46.7219 10.5864 46.7219 10.2574ZM47.8721 10.2574C47.8721 10.4898 48.0155 10.6664 48.3022 10.7872C48.589 10.9049 49.0071 10.9638 49.5566 10.9638C50.109 10.9638 50.5286 10.9049 50.8154 10.7872C51.1022 10.6694 51.2471 10.4928 51.2501 10.2574C51.2471 10.0249 51.1037 9.84983 50.8199 9.73209C50.5392 9.61134 50.1286 9.55096 49.5883 9.55096C48.4441 9.55096 47.8721 9.78643 47.8721 10.2574ZM59.9806 6.12761H61.0945V7.06949H59.9806V9.75021H58.8213V3.60085H59.9806V6.12761ZM53.4418 4.46122H55.3165V3.58274H56.4667V4.46122H58.3323V5.37592H53.4418V4.46122ZM53.8403 7.25967C53.8403 6.94572 53.9263 6.66798 54.0984 6.42648C54.2735 6.18497 54.5165 5.9978 54.8274 5.86497C55.1384 5.73215 55.4916 5.66573 55.887 5.66573C56.2825 5.66573 56.6327 5.73215 56.9376 5.86497C57.2455 5.9978 57.4855 6.18497 57.6576 6.42648C57.8297 6.66798 57.9157 6.94572 57.9157 7.25967C57.9157 7.57363 57.8297 7.84985 57.6576 8.08834C57.4885 8.32381 57.25 8.50796 56.9421 8.64079C56.6342 8.7706 56.2825 8.8355 55.887 8.8355C55.4886 8.8355 55.1339 8.7706 54.8229 8.64079C54.515 8.50796 54.2735 8.3223 54.0984 8.08381C53.9263 7.84533 53.8403 7.57061 53.8403 7.25967ZM54.6373 9.27927H55.7874V10.7645H60.2794V11.6883H54.6373V9.27927ZM54.9723 7.25967C54.9693 7.48307 55.0508 7.65514 55.2169 7.77589C55.3829 7.89665 55.6063 7.95702 55.887 7.95702C56.1708 7.95702 56.3972 7.89665 56.5663 7.77589C56.7353 7.65514 56.8199 7.48307 56.8199 7.25967C56.8199 7.03628 56.7353 6.8627 56.5663 6.73893C56.3972 6.61213 56.1708 6.54723 55.887 6.54421C55.6063 6.54723 55.3829 6.61213 55.2169 6.73893C55.0508 6.8627 54.9693 7.03628 54.9723 7.25967ZM71.1291 9.12531H67.905V11.8241H66.7639V9.12531H63.5851V8.20155H71.1291V9.12531ZM64.4726 3.99028H70.2235V7.31401H64.4726V3.99028ZM69.0733 6.40836V4.90499H65.6137V6.40836H69.0733ZM78.329 8.32834H72.4966V4.28009H78.2656V5.21291H73.6378V7.40458H78.329V8.32834ZM71.6091 9.877H79.1531V10.8279H71.6091V9.877ZM81.9063 11.0996C81.4656 11.0996 81.0792 11.0196 80.7471 10.8596C80.415 10.6966 80.1599 10.4762 79.9818 10.1985C79.8037 9.91775 79.7147 9.6053 79.7147 9.26116C79.7147 9.01663 79.763 8.79626 79.8596 8.60003C79.9562 8.40381 80.089 8.22419 80.258 8.06117C80.4301 7.89816 80.649 7.72457 80.9146 7.54042C80.7184 7.28986 80.5645 7.04383 80.4528 6.80232C80.3411 6.56081 80.2852 6.30572 80.2852 6.03705C80.2852 5.72007 80.3592 5.43479 80.5071 5.18121C80.658 4.92461 80.8678 4.72235 81.1365 4.57443C81.4082 4.4265 81.7192 4.35254 82.0693 4.35254C82.4074 4.35254 82.7048 4.42198 82.9614 4.56084C83.218 4.69971 83.4157 4.88537 83.5546 5.11782C83.6935 5.35026 83.7629 5.60536 83.7629 5.88309C83.7629 6.48383 83.4731 6.991 82.8935 7.40458L82.5086 7.68533L83.6044 8.94418C83.7886 8.60003 83.8806 8.22268 83.8806 7.81212H84.9946C84.9976 8.24079 84.9463 8.62871 84.8406 8.97588C84.738 9.32002 84.5931 9.61738 84.4059 9.86794L85.3931 11H83.9893L83.5863 10.5472C83.3569 10.7313 83.0957 10.8687 82.8029 10.9592C82.5101 11.0498 82.2112 11.0966 81.9063 11.0996ZM81.0188 9.1887C81.0188 9.34266 81.0565 9.48304 81.132 9.60983C81.2105 9.7336 81.3207 9.83171 81.4626 9.90417C81.6075 9.97662 81.7735 10.0128 81.9607 10.0128C82.2686 10.0128 82.569 9.92228 82.8618 9.74115L81.6075 8.34192L81.5622 8.37362C81.381 8.50343 81.2452 8.63928 81.1546 8.78116C81.0641 8.92003 81.0188 9.05588 81.0188 9.1887ZM81.4354 6.05516C81.4384 6.18195 81.4746 6.31478 81.5441 6.45365C81.6165 6.58949 81.7222 6.74496 81.861 6.92006L82.2052 6.68911C82.3712 6.58647 82.492 6.47629 82.5674 6.35855C82.6459 6.2378 82.6852 6.10346 82.6852 5.95554C82.6852 5.87101 82.661 5.7895 82.6127 5.71101C82.5644 5.62951 82.495 5.5646 82.4044 5.5163C82.3139 5.46498 82.2082 5.43932 82.0875 5.43932C81.8973 5.43932 81.7418 5.49819 81.621 5.61592C81.5003 5.73366 81.4384 5.88007 81.4354 6.05516ZM93.1726 8.72682H90.0662V10.0581H88.9251V8.72682H85.6285V7.82117H93.1726V8.72682ZM86.5161 9.40606H87.6572V10.7645H92.3394V11.6883H86.5161V9.40606ZM86.5976 3.85444H87.7387V4.7148H91.0443V3.85444H92.1945V7.24156H86.5976V3.85444ZM91.0443 6.32686V5.57517H87.7387V6.32686H91.0443ZM96.3424 3.93594C96.7589 3.93293 97.1318 4.00538 97.4608 4.1533C97.7899 4.30122 98.048 4.50801 98.2352 4.77367C98.4223 5.03933 98.5159 5.34272 98.5159 5.68385C98.5159 6.02195 98.4223 6.32535 98.2352 6.59402C98.048 6.85968 97.7884 7.06647 97.4563 7.21439C97.1272 7.36231 96.7559 7.43477 96.3424 7.43175C95.9288 7.43477 95.5575 7.36231 95.2284 7.21439C94.8994 7.06647 94.6412 6.85968 94.4541 6.59402C94.2699 6.32535 94.1779 6.02195 94.1779 5.68385C94.1779 5.34272 94.2699 5.03933 94.4541 4.77367C94.6412 4.50801 94.8994 4.30122 95.2284 4.1533C95.5575 4.00538 95.9288 3.93293 96.3424 3.93594ZM93.6707 7.93891C94.6639 7.93589 95.5982 7.91476 96.4737 7.87551C97.3521 7.83627 98.1808 7.75778 98.9597 7.64005L99.0321 8.49135C98.4072 8.61513 97.7189 8.7072 96.9672 8.76758V11.5887H95.8171V8.8355C95.4971 8.8506 95.162 8.86116 94.8118 8.8672C94.4646 8.87022 94.2412 8.87324 94.1416 8.87626L93.8156 8.88078L93.6707 7.93891ZM95.2918 5.68385C95.2888 5.93743 95.3839 6.13667 95.5771 6.28157C95.7733 6.42648 96.0284 6.49591 96.3424 6.48987C96.6654 6.49591 96.925 6.42648 97.1212 6.28157C97.3205 6.13667 97.4201 5.93743 97.4201 5.68385C97.4201 5.42725 97.322 5.22649 97.1257 5.08159C96.9295 4.93367 96.6729 4.85971 96.3559 4.85971C96.0359 4.85971 95.7778 4.93216 95.5816 5.07706C95.3854 5.22196 95.2888 5.42423 95.2918 5.68385ZM99.4578 3.60085H100.599V11.8332H99.4578V3.60085ZM108.596 11.8332H107.427V3.5918H108.596V11.8332ZM101.695 9.49662C102.398 9.16455 102.978 8.79475 103.434 8.38721C103.892 7.97966 104.243 7.52835 104.484 7.03326C104.729 6.53515 104.883 5.97667 104.946 5.35781H102.138V4.45216H106.123C106.12 5.33366 106.001 6.13516 105.766 6.85666C105.53 7.57816 105.13 8.24079 104.566 8.84456C104.004 9.44832 103.249 9.9736 102.302 10.4204L101.695 9.49662Z" fill="#ABABAB"/>
<mask id="mask0_1132_2431" style="mask-type:alpha" maskUnits="userSpaceOnUse" x="0" y="0" width="17" height="17">
<rect width="17" height="17" fill="#D9D9D9"/>
</mask>
<g mask="url(#mask0_1132_2431)">
<path d="M13.4557 4.25C12.8655 4.25 12.3637 4.0434 11.9505 3.63021C11.5373 3.21701 11.3307 2.71528 11.3307 2.125C11.3307 1.53472 11.5373 1.03299 11.9505 0.619792C12.3637 0.206597 12.8655 0 13.4557 0C14.046 0 14.5477 0.206597 14.9609 0.619792C15.3741 1.03299 15.5807 1.53472 15.5807 2.125C15.5807 2.71528 15.3741 3.21701 14.9609 3.63021C14.5477 4.0434 14.046 4.25 13.4557 4.25ZM1.41406 15.5833V2.83333C1.41406 2.44375 1.55278 2.11024 1.83021 1.83281C2.10764 1.55538 2.44115 1.41667 2.83073 1.41667H9.9849C9.93767 1.65278 9.91406 1.88889 9.91406 2.125C9.91406 2.36111 9.93767 2.59722 9.9849 2.83333C10.1502 3.65972 10.5575 4.33854 11.2068 4.86979C11.8561 5.40104 12.6057 5.66667 13.4557 5.66667C13.8335 5.66667 14.2054 5.60764 14.5714 5.48958C14.9373 5.37153 15.2738 5.19444 15.5807 4.95833V11.3333C15.5807 11.7229 15.442 12.0564 15.1646 12.3339C14.8872 12.6113 14.5536 12.75 14.1641 12.75H4.2474L1.41406 15.5833Z" fill="#ABABAB"/>
</g>
</svg>
