<svg width="27" height="27" viewBox="0 0 27 27" fill="none" xmlns="http://www.w3.org/2000/svg">
<rect x="0.44403" y="0.44403" width="25.7537" height="25.7537" rx="12.8769" fill="white"/>
<rect x="0.44403" y="0.44403" width="25.7537" height="25.7537" rx="12.8769" stroke="#E4E4E4" stroke-width="0.88806"/>
<mask id="mask0_719_2314" style="mask-type:alpha" maskUnits="userSpaceOnUse" x="4" y="4" width="19" height="19">
<rect x="4.88281" y="4.88281" width="17.7612" height="17.7612" fill="#D9D9D9"/>
</mask>
<g mask="url(#mask0_719_2314)">
<path d="M13.6154 16.8741L14.6515 15.8381L12.2833 13.4699V10.0657H10.8032V14.0619L13.6154 16.8741ZM18.2037 20.0563V18.4282C19.1164 17.9965 19.838 17.3613 20.3684 16.5226C20.8987 15.6839 21.1639 14.765 21.1639 13.7659C21.1639 12.7668 20.8987 11.848 20.3684 11.0092C19.838 10.1705 19.1164 9.5353 18.2037 9.1036V7.47549C19.5481 7.94419 20.6243 8.75516 21.4322 9.90841C22.2401 11.0617 22.644 12.3475 22.644 13.7659C22.644 15.1843 22.2401 16.4702 21.4322 17.6234C20.6243 18.7767 19.5481 19.5876 18.2037 20.0563ZM11.5433 20.4264C10.6182 20.4264 9.75172 20.2506 8.94384 19.8991C8.13595 19.5476 7.4329 19.0727 6.83469 18.4745C6.23649 17.8763 5.76162 17.1732 5.4101 16.3653C5.05857 15.5575 4.88281 14.691 4.88281 13.7659C4.88281 12.8409 5.05857 11.9744 5.4101 11.1665C5.76162 10.3586 6.23649 9.65556 6.83469 9.05735C7.4329 8.45914 8.13595 7.98428 8.94384 7.63275C9.75172 7.28123 10.6182 7.10547 11.5433 7.10547C12.4683 7.10547 13.3348 7.28123 14.1427 7.63275C14.9506 7.98428 15.6536 8.45914 16.2518 9.05735C16.85 9.65556 17.3249 10.3586 17.6764 11.1665C18.0279 11.9744 18.2037 12.8409 18.2037 13.7659C18.2037 14.691 18.0279 15.5575 17.6764 16.3653C17.3249 17.1732 16.85 17.8763 16.2518 18.4745C15.6536 19.0727 14.9506 19.5476 14.1427 19.8991C13.3348 20.2506 12.4683 20.4264 11.5433 20.4264Z" fill="#C7C7C7"/>
</g>
</svg>
