<svg width="26" height="125" viewBox="0 0 26 125" fill="none" xmlns="http://www.w3.org/2000/svg">
<path d="M9.26667 121C9.26667 123.062 10.9381 124.733 13 124.733C15.0619 124.733 16.7333 123.062 16.7333 121C16.7333 118.938 15.0619 117.267 13 117.267C10.9381 117.267 9.26667 118.938 9.26667 121ZM13 26L12.3 26L12.3 27.3971L13 27.3971L13.7 27.3971L13.7 26L13 26ZM13 30.1912L12.3 30.1912L12.3 32.9853L13 32.9853L13.7 32.9853L13.7 30.1912L13 30.1912ZM13 35.7794L12.3 35.7794L12.3 38.5735L13 38.5735L13.7 38.5735L13.7 35.7794L13 35.7794ZM13 41.3676L12.3 41.3676L12.3 44.1618L13 44.1618L13.7 44.1618L13.7 41.3676L13 41.3676ZM13 46.9559L12.3 46.9559L12.3 49.75L13 49.75L13.7 49.75L13.7 46.9559L13 46.9559ZM13 52.5441L12.3 52.5441L12.3 55.3382L13 55.3382L13.7 55.3382L13.7 52.5441L13 52.5441ZM13 58.1323L12.3 58.1323L12.3 60.9265L13 60.9265L13.7 60.9265L13.7 58.1323L13 58.1323ZM13 63.7206L12.3 63.7206L12.3 66.5147L13 66.5147L13.7 66.5147L13.7 63.7206L13 63.7206ZM13 69.3088L12.3 69.3088L12.3 72.1029L13 72.1029L13.7 72.1029L13.7 69.3088L13 69.3088ZM13 74.8971L12.3 74.8971L12.3 77.6912L13 77.6912L13.7 77.6912L13.7 74.8971L13 74.8971ZM13 80.4853L12.3 80.4853L12.3 83.2794L13 83.2794L13.7 83.2794L13.7 80.4853L13 80.4853ZM13 86.0735L12.3 86.0735L12.3 88.8676L13 88.8676L13.7 88.8676L13.7 86.0735L13 86.0735ZM13 91.6618L12.3 91.6618L12.3 94.4559L13 94.4559L13.7 94.4559L13.7 91.6618L13 91.6618ZM13 97.25L12.3 97.25L12.3 100.044L13 100.044L13.7 100.044L13.7 97.25L13 97.25ZM13 102.838L12.3 102.838L12.3 105.632L13 105.632L13.7 105.632L13.7 102.838L13 102.838ZM13 108.426L12.3 108.426L12.3 111.221L13 111.221L13.7 111.221L13.7 108.426L13 108.426ZM13 114.015L12.3 114.015L12.3 116.809L13 116.809L13.7 116.809L13.7 114.015L13 114.015ZM13 119.603L12.3 119.603L12.3 121L13 121L13.7 121L13.7 119.603L13 119.603Z" fill="#4FD493"/>
<circle cx="13" cy="13" r="12.6579" fill="#2FB975" stroke="#FBFBFB" stroke-width="0.684211"/>
<mask id="mask0_1132_2430" style="mask-type:alpha" maskUnits="userSpaceOnUse" x="4" y="4" width="18" height="18">
<rect x="4.78906" y="4.78906" width="16.4211" height="16.4211" fill="#D9D9D9"/>
</mask>
<g mask="url(#mask0_1132_2430)">
<path d="M13.0004 19.8405C11.7916 19.8405 10.8052 19.6495 10.0412 19.2674C9.27717 18.8854 8.89515 18.3922 8.89515 17.7878C8.89515 17.5141 8.97782 17.2604 9.14317 17.0266C9.30853 16.7929 9.53945 16.5905 9.83594 16.4194L10.9136 17.4286C10.8109 17.4742 10.6998 17.5255 10.58 17.5826C10.4603 17.6396 10.3662 17.708 10.2978 17.7878C10.446 17.9703 10.7881 18.1299 11.3241 18.2668C11.8601 18.4036 12.4188 18.472 13.0004 18.472C13.582 18.472 14.1436 18.4036 14.6853 18.2668C15.2269 18.1299 15.5719 17.9703 15.7201 17.7878C15.6403 17.6966 15.5377 17.6225 15.4123 17.5655C15.2868 17.5084 15.1671 17.4571 15.053 17.4115L16.1136 16.3852C16.4329 16.5677 16.678 16.7758 16.8491 17.0095C17.0201 17.2433 17.1057 17.5027 17.1057 17.7878C17.1057 18.3922 16.7237 18.8854 15.9596 19.2674C15.1956 19.6495 14.2092 19.8405 13.0004 19.8405ZM13.0004 17.7878C11.3925 16.6019 10.1923 15.4501 9.39975 14.3326C8.60721 13.215 8.21094 12.1203 8.21094 11.0484C8.21094 10.2387 8.35633 9.52884 8.64712 8.91875C8.93791 8.30866 9.31138 7.79836 9.76752 7.38783C10.2237 6.9773 10.7368 6.66941 11.307 6.46414C11.8772 6.25888 12.4416 6.15625 13.0004 6.15625C13.5592 6.15625 14.1237 6.25888 14.6938 6.46414C15.264 6.66941 15.7772 6.9773 16.2333 7.38783C16.6894 7.79836 17.0629 8.30866 17.3537 8.91875C17.6445 9.52884 17.7899 10.2387 17.7899 11.0484C17.7899 12.1203 17.3936 13.215 16.6011 14.3326C15.8085 15.4501 14.6083 16.6019 13.0004 17.7878ZM13.0004 12.3141C13.3767 12.3141 13.6989 12.1802 13.9669 11.9122C14.2348 11.6442 14.3688 11.322 14.3688 10.9457C14.3688 10.5694 14.2348 10.2473 13.9669 9.97928C13.6989 9.71129 13.3767 9.5773 13.0004 9.5773C12.6241 9.5773 12.3019 9.71129 12.034 9.97928C11.766 10.2473 11.632 10.5694 11.632 10.9457C11.632 11.322 11.766 11.6442 12.034 11.9122C12.3019 12.1802 12.6241 12.3141 13.0004 12.3141Z" fill="white"/>
</g>
</svg>
