<svg width="27" height="28" viewBox="0 0 27 28" fill="none" xmlns="http://www.w3.org/2000/svg">
<rect x="0.44403" y="1.12372" width="25.7537" height="25.7537" rx="12.8769" fill="white"/>
<rect x="0.44403" y="1.12372" width="25.7537" height="25.7537" rx="12.8769" stroke="#E4E4E4" stroke-width="0.88806"/>
<mask id="mask0_750_2226" style="mask-type:alpha" maskUnits="userSpaceOnUse" x="4" y="5" width="19" height="19">
<rect x="4.88281" y="5.5625" width="17.7612" height="17.7612" fill="#D9D9D9"/>
</mask>
<g mask="url(#mask0_750_2226)">
<path d="M19.6454 21.1061C18.1036 21.1061 16.5804 20.7699 15.0756 20.0977C13.5708 19.4255 12.2017 18.4727 10.9683 17.2393C9.73491 16.0059 8.78209 14.6368 8.10988 13.132C7.43767 11.6272 7.10156 10.104 7.10156 8.56221C7.10156 8.34019 7.17557 8.15518 7.32358 8.00717C7.47159 7.85916 7.6566 7.78516 7.87861 7.78516H10.8758C11.0485 7.78516 11.2027 7.84374 11.3383 7.96092C11.474 8.07809 11.5542 8.21685 11.5789 8.3772L12.0599 10.9674C12.0846 11.1647 12.0784 11.3312 12.0414 11.4669C12.0044 11.6026 11.9366 11.7198 11.8379 11.8184L10.0433 13.6315C10.2899 14.0879 10.5829 14.5289 10.9221 14.9544C11.2613 15.3799 11.6344 15.79 12.0414 16.1847C12.4238 16.5671 12.8246 16.9217 13.244 17.2485C13.6633 17.5754 14.1074 17.8745 14.5761 18.1459L16.3152 16.4067C16.4262 16.2957 16.5711 16.2125 16.75 16.157C16.9288 16.1015 17.1046 16.086 17.2772 16.1107L19.8304 16.6287C20.0031 16.6781 20.1449 16.7675 20.2559 16.897C20.367 17.0265 20.4225 17.1715 20.4225 17.3318V20.329C20.4225 20.551 20.3485 20.736 20.2004 20.884C20.0524 21.032 19.8674 21.1061 19.6454 21.1061Z" fill="#C7C7C7"/>
</g>
</svg>
