<svg width="27" height="28" viewBox="0 0 27 28" fill="none" xmlns="http://www.w3.org/2000/svg">
<rect x="0.623717" y="1.38153" width="25.7537" height="25.7537" rx="12.8769" fill="white"/>
<rect x="0.623717" y="1.38153" width="25.7537" height="25.7537" rx="12.8769" stroke="#E4E4E4" stroke-width="0.88806"/>
<mask id="mask0_719_2321" style="mask-type:alpha" maskUnits="userSpaceOnUse" x="5" y="5" width="18" height="19">
<rect x="5.0625" y="5.82031" width="17.7612" height="17.7612" fill="#D9D9D9"/>
</mask>
<g mask="url(#mask0_719_2321)">
<path d="M19.8251 21.3639C18.2833 21.3639 16.7601 21.0278 15.2553 20.3555C13.7505 19.6833 12.3814 18.7305 11.148 17.4971C9.91459 16.2637 8.96178 14.8946 8.28957 13.3898C7.61736 11.8851 7.28125 10.3618 7.28125 8.82002C7.28125 8.59801 7.35525 8.41299 7.50326 8.26498C7.65127 8.11697 7.83629 8.04297 8.0583 8.04297H11.0555C11.2282 8.04297 11.3824 8.10156 11.518 8.21873C11.6537 8.33591 11.7339 8.47466 11.7586 8.63501L12.2396 11.2252C12.2643 11.4225 12.2581 11.589 12.2211 11.7247C12.1841 11.8604 12.1162 11.9776 12.0176 12.0762L10.2229 13.8894C10.4696 14.3457 10.7626 14.7867 11.1018 15.2122C11.4409 15.6377 11.8141 16.0478 12.2211 16.4425C12.6034 16.8249 13.0043 17.1795 13.4237 17.5064C13.843 17.8332 14.2871 18.1323 14.7558 18.4037L16.4949 16.6645C16.6059 16.5535 16.7508 16.4703 16.9296 16.4148C17.1085 16.3593 17.2843 16.3439 17.4569 16.3685L20.0101 16.8866C20.1828 16.9359 20.3246 17.0253 20.4356 17.1548C20.5466 17.2843 20.6021 17.4293 20.6021 17.5896V20.5868C20.6021 20.8088 20.5281 20.9938 20.3801 21.1418C20.2321 21.2899 20.0471 21.3639 19.8251 21.3639Z" fill="#C7C7C7"/>
</g>
</svg>
