<svg width="24" height="24" viewBox="0 0 24 24" fill="none" xmlns="http://www.w3.org/2000/svg">
<mask id="mask0_582_2306" style="mask-type:alpha" maskUnits="userSpaceOnUse" x="0" y="0" width="24" height="24">
<rect width="24" height="24" fill="#D9D9D9"/>
</mask>
<g mask="url(#mask0_582_2306)">
<path d="M14.1176 24.3543L13.8088 20.6484H13.5C10.5765 20.6484 8.09559 19.6293 6.05735 17.5911C4.01912 15.5528 3 13.072 3 10.1484C3 7.22491 4.01912 4.74403 6.05735 2.70579C8.09559 0.667555 10.5765 -0.351562 13.5 -0.351562C14.9618 -0.351562 16.3257 -0.0787683 17.5919 0.46682C18.8581 1.01241 19.9699 1.76388 20.9272 2.72123C21.8846 3.67858 22.636 4.79035 23.1816 6.05653C23.7272 7.3227 24 8.68667 24 10.1484C24 11.6926 23.7478 13.1749 23.2434 14.5955C22.739 16.0161 22.0493 17.3337 21.1743 18.5484C20.2993 19.7631 19.2596 20.8646 18.0551 21.8528C16.8507 22.8411 15.5382 23.6749 14.1176 24.3543ZM16.5882 19.8455C18.05 18.6102 19.239 17.1639 20.1551 15.5065C21.0713 13.8492 21.5294 12.0631 21.5294 10.1484C21.5294 7.90432 20.7522 6.00505 19.1978 4.45064C17.6434 2.89623 15.7441 2.11903 13.5 2.11903C11.2559 2.11903 9.35662 2.89623 7.80221 4.45064C6.24779 6.00505 5.47059 7.90432 5.47059 10.1484C5.47059 12.3926 6.24779 14.2918 7.80221 15.8462C9.35662 17.4006 11.2559 18.1778 13.5 18.1778H16.5882V19.8455ZM13.4691 16.9117C13.8191 16.9117 14.1176 16.7881 14.3647 16.5411C14.6118 16.294 14.7353 15.9955 14.7353 15.6455C14.7353 15.2955 14.6118 14.997 14.3647 14.7499C14.1176 14.5028 13.8191 14.3793 13.4691 14.3793C13.1191 14.3793 12.8206 14.5028 12.5735 14.7499C12.3265 14.997 12.2029 15.2955 12.2029 15.6455C12.2029 15.9955 12.3265 16.294 12.5735 16.5411C12.8206 16.7881 13.1191 16.9117 13.4691 16.9117ZM12.5735 12.9896H14.4265C14.4265 12.372 14.4882 11.9396 14.6118 11.6926C14.7353 11.4455 15.1265 10.9926 15.7853 10.3337C16.1559 9.96314 16.4647 9.56167 16.7118 9.12932C16.9588 8.69697 17.0824 8.23373 17.0824 7.73961C17.0824 6.68961 16.7272 5.90211 16.0169 5.37711C15.3066 4.85211 14.4676 4.58961 13.5 4.58961C12.5941 4.58961 11.8324 4.84182 11.2147 5.34623C10.5971 5.85064 10.1647 6.46314 9.91765 7.18373L11.6471 7.86314C11.75 7.51314 11.9456 7.16829 12.2338 6.82858C12.5221 6.48888 12.9441 6.31903 13.5 6.31903C14.0559 6.31903 14.4728 6.47344 14.7507 6.78226C15.0287 7.09108 15.1676 7.43079 15.1676 7.80138C15.1676 8.15138 15.0647 8.46535 14.8588 8.74329C14.6529 9.02123 14.4059 9.30432 14.1176 9.59256C13.3971 10.2102 12.9596 10.6992 12.8051 11.0595C12.6507 11.4198 12.5735 12.0631 12.5735 12.9896Z" fill="#BEBEBE"/>
</g>
</svg>
