<svg width="27" height="27" viewBox="0 0 27 27" fill="none" xmlns="http://www.w3.org/2000/svg">
<rect x="0.44403" y="0.561217" width="25.7537" height="25.7537" rx="12.8769" fill="white"/>
<rect x="0.44403" y="0.561217" width="25.7537" height="25.7537" rx="12.8769" stroke="#E4E4E4" stroke-width="0.88806"/>
<mask id="mask0_864_3261" style="mask-type:alpha" maskUnits="userSpaceOnUse" x="4" y="5" width="19" height="18">
<rect x="4.88281" y="5" width="17.7612" height="17.7612" fill="#D9D9D9"/>
</mask>
<g mask="url(#mask0_864_3261)">
<path d="M13.6154 16.9913L14.6515 15.9552L12.2833 13.5871V10.1829H10.8032V14.1791L13.6154 16.9913ZM18.2037 20.1735V18.5454C19.1164 18.1137 19.838 17.4785 20.3684 16.6398C20.8987 15.8011 21.1639 14.8822 21.1639 13.8831C21.1639 12.884 20.8987 11.9651 20.3684 11.1264C19.838 10.2877 19.1164 9.65249 18.2037 9.22079V7.59268C19.5481 8.06138 20.6243 8.87235 21.4322 10.0256C22.2401 11.1788 22.644 12.4647 22.644 13.8831C22.644 15.3015 22.2401 16.5874 21.4322 17.7406C20.6243 18.8939 19.5481 19.7048 18.2037 20.1735ZM11.5433 20.5436C10.6182 20.5436 9.75172 20.3678 8.94384 20.0163C8.13595 19.6647 7.4329 19.1899 6.83469 18.5917C6.23649 17.9935 5.76162 17.2904 5.4101 16.4825C5.05857 15.6746 4.88281 14.8082 4.88281 13.8831C4.88281 12.958 5.05857 12.0916 5.4101 11.2837C5.76162 10.4758 6.23649 9.77274 6.83469 9.17454C7.4329 8.57633 8.13595 8.10147 8.94384 7.74994C9.75172 7.39842 10.6182 7.22266 11.5433 7.22266C12.4683 7.22266 13.3348 7.39842 14.1427 7.74994C14.9506 8.10147 15.6536 8.57633 16.2518 9.17454C16.85 9.77274 17.3249 10.4758 17.6764 11.2837C18.0279 12.0916 18.2037 12.958 18.2037 13.8831C18.2037 14.8082 18.0279 15.6746 17.6764 16.4825C17.3249 17.2904 16.85 17.9935 16.2518 18.5917C15.6536 19.1899 14.9506 19.6647 14.1427 20.0163C13.3348 20.3678 12.4683 20.5436 11.5433 20.5436Z" fill="#C7C7C7"/>
</g>
</svg>
