<svg width="35" height="34" viewBox="0 0 35 34" fill="none" xmlns="http://www.w3.org/2000/svg">
<path d="M16.6895 0C25.227 0 32.2656 6.41042 33.2578 14.6807L9.81934 6.19043L18.2471 30.7832L21.3379 20.6504L28.668 28.3086C25.6347 31.4351 21.3896 33.3789 16.6895 33.3789C7.47196 33.3788 0 25.907 0 16.6895C1.48569e-05 7.47196 7.47197 5.54193e-05 16.6895 0ZM32.7373 27.4121L30.1357 29.8418L28.668 28.3086C29.5057 27.4451 30.251 26.4919 30.8877 25.4639L32.7373 27.4121ZM33.3223 15.3154C33.3592 15.7686 33.3789 16.2268 33.3789 16.6895C33.3789 19.9087 32.4666 22.9143 30.8877 25.4639L24.0781 18.29L33.3223 15.3154ZM34.2178 15.0283L33.3223 15.3154C33.3049 15.1026 33.2831 14.8911 33.2578 14.6807L34.2178 15.0283Z" fill="#2FB975"/>
</svg>
