<svg width="50" height="12" viewBox="0 0 50 12" fill="none" xmlns="http://www.w3.org/2000/svg">
<mask id="mask0_801_5852" style="mask-type:alpha" maskUnits="userSpaceOnUse" x="0" y="0" width="12" height="12">
<rect width="12" height="12" fill="#D9D9D9"/>
</mask>
<g mask="url(#mask0_801_5852)">
<path d="M1.00781 12V10H11.0078V12H1.00781ZM3.00781 8H3.70781L7.60781 4.1125L6.89531 3.4L3.00781 7.3V8ZM2.00781 9V6.875L7.60781 1.2875C7.69948 1.19583 7.80573 1.125 7.92656 1.075C8.0474 1.025 8.17448 1 8.30781 1C8.44115 1 8.57031 1.025 8.69531 1.075C8.82031 1.125 8.93281 1.2 9.03281 1.3L9.72031 2C9.82031 2.09167 9.89323 2.2 9.93906 2.325C9.9849 2.45 10.0078 2.57917 10.0078 2.7125C10.0078 2.8375 9.9849 2.96042 9.93906 3.08125C9.89323 3.20208 9.82031 3.3125 9.72031 3.4125L4.13281 9H2.00781Z" fill="#B9B9B9"/>
</g>
<path d="M19.5898 2.70508C19.5866 3.06641 19.7054 3.42122 19.9463 3.76953C20.1904 4.11458 20.5469 4.41406 21.0156 4.66797C21.4844 4.91862 22.0443 5.08464 22.6953 5.16602L22.207 6.17188C21.4453 6.0612 20.7829 5.83984 20.2197 5.50781C19.6598 5.17253 19.2318 4.75911 18.9355 4.26758C18.6361 4.75911 18.2064 5.17253 17.6465 5.50781C17.0898 5.83984 16.4355 6.0612 15.6836 6.17188L15.1855 5.16602C15.8301 5.08464 16.3851 4.91862 16.8506 4.66797C17.3193 4.41406 17.6742 4.11458 17.915 3.76953C18.1559 3.42122 18.278 3.06641 18.2812 2.70508V2.27539H19.5898V2.70508ZM14.873 6.8457H22.9785V7.86133H19.5215V10.8984H18.291V7.86133H14.873V6.8457ZM31.0059 7.28516H29.7656V5.18555H28.3789V4.17969H29.7656V2.01172H31.0059V7.28516ZM23.457 6.30859C23.9225 6.15234 24.3148 5.92936 24.6338 5.63965C24.9528 5.34993 25.1921 5.02441 25.3516 4.66309C25.5111 4.30176 25.5957 3.92904 25.6055 3.54492H23.8184V2.54883H28.6426V3.54492H26.875C26.8848 3.90299 26.9645 4.24805 27.1143 4.58008C27.264 4.90885 27.4902 5.20508 27.793 5.46875C28.099 5.73242 28.4733 5.9375 28.916 6.08398L28.3008 7.06055C27.8255 6.90755 27.4154 6.67969 27.0703 6.37695C26.7285 6.07096 26.4583 5.71289 26.2598 5.30273C26.0579 5.76823 25.7764 6.1735 25.415 6.51855C25.0537 6.86035 24.6159 7.11914 24.1016 7.29492L23.457 6.30859ZM24.9121 9.19922C24.9121 8.8444 25.0342 8.53841 25.2783 8.28125C25.5257 8.02083 25.8789 7.82227 26.3379 7.68555C26.7969 7.54883 27.3405 7.48047 27.9688 7.48047C28.6003 7.48047 29.1455 7.54883 29.6045 7.68555C30.0635 7.82227 30.4167 8.01921 30.6641 8.27637C30.9115 8.53353 31.0352 8.84115 31.0352 9.19922C31.0352 9.55729 30.9115 9.86328 30.6641 10.1172C30.4167 10.3743 30.0635 10.5697 29.6045 10.7031C29.1455 10.8398 28.6003 10.9082 27.9688 10.9082C27.3405 10.9082 26.7969 10.8398 26.3379 10.7031C25.8789 10.5697 25.5257 10.3743 25.2783 10.1172C25.0342 9.86003 24.9121 9.55404 24.9121 9.19922ZM26.1523 9.19922C26.1523 9.44987 26.307 9.6403 26.6162 9.77051C26.9255 9.89746 27.3763 9.96094 27.9688 9.96094C28.5645 9.96094 29.0169 9.89746 29.3262 9.77051C29.6354 9.64355 29.7917 9.45312 29.7949 9.19922C29.7917 8.94857 29.637 8.75977 29.3311 8.63281C29.0283 8.5026 28.5856 8.4375 28.0029 8.4375C26.7692 8.4375 26.1523 8.69141 26.1523 9.19922ZM39.1699 5.48828H40.4785V6.51367H39.1699V10.8984H37.9395V2.01172H39.1699V5.48828ZM32.1094 3.33984H34.1211V2.14844H35.3711V3.33984H37.334V4.33594H32.1094V3.33984ZM32.4707 6.95312C32.4707 6.54622 32.5684 6.18164 32.7637 5.85938C32.959 5.53711 33.2292 5.28646 33.5742 5.10742C33.9225 4.92513 34.3132 4.83398 34.7461 4.83398C35.1725 4.83398 35.5583 4.92513 35.9033 5.10742C36.2484 5.28646 36.5186 5.53711 36.7139 5.85938C36.9124 6.18164 37.0117 6.54622 37.0117 6.95312C37.0117 7.36003 36.9124 7.72461 36.7139 8.04688C36.5186 8.36589 36.2484 8.61654 35.9033 8.79883C35.5583 8.98112 35.1725 9.07227 34.7461 9.07227C34.3132 9.07227 33.9225 8.98112 33.5742 8.79883C33.2292 8.61654 32.959 8.36589 32.7637 8.04688C32.5684 7.72461 32.4707 7.36003 32.4707 6.95312ZM33.6621 6.95312C33.6621 7.17773 33.7077 7.37305 33.7988 7.53906C33.8932 7.70508 34.0218 7.83203 34.1846 7.91992C34.3473 8.00781 34.5345 8.05013 34.7461 8.04688C34.9544 8.05013 35.14 8.00781 35.3027 7.91992C35.4655 7.83203 35.5924 7.70508 35.6836 7.53906C35.7747 7.37305 35.8203 7.17773 35.8203 6.95312C35.8203 6.72852 35.7747 6.5332 35.6836 6.36719C35.5924 6.20117 35.4655 6.07259 35.3027 5.98145C35.14 5.8903 34.9544 5.8431 34.7461 5.83984C34.5345 5.8431 34.3473 5.8903 34.1846 5.98145C34.0218 6.07259 33.8932 6.20117 33.7988 6.36719C33.7077 6.5332 33.6621 6.72852 33.6621 6.95312ZM48.2715 10.8984H47.0117V2.01172H48.2715V10.8984ZM40.8301 8.37891C41.5885 8.02083 42.2135 7.62207 42.7051 7.18262C43.1999 6.74316 43.5775 6.25651 43.8379 5.72266C44.1016 5.18555 44.2676 4.58333 44.3359 3.91602H41.3086V2.93945H45.6055C45.6022 3.88997 45.4736 4.75423 45.2197 5.53223C44.9658 6.31022 44.5345 7.02474 43.9258 7.67578C43.3203 8.32682 42.5065 8.89323 41.4844 9.375L40.8301 8.37891Z" fill="#B9B9B9"/>
</svg>
