<svg width="619" height="115" viewBox="0 0 619 115" fill="none" xmlns="http://www.w3.org/2000/svg">
<g filter="url(#filter0_d_582_5498)">
<path d="M520.352 104.789V1.54688H613.793V19.5437H549.671V44.1443H608.986V62.1411H549.671V86.7921H614.064V104.789H520.352Z" fill="#2FB975"/>
<path d="M499.339 37.6969H469.681C469.14 34.8403 468.034 32.3029 466.363 30.0849C464.693 27.8332 462.549 25.9175 459.931 24.338C457.313 22.7584 454.288 21.5486 450.858 20.7084C447.472 19.8682 443.793 19.4481 439.821 19.4481C432.643 19.4481 426.391 20.7756 421.065 23.4306C415.738 26.052 411.608 29.8832 408.673 34.9243C405.739 39.9318 404.272 46.0148 404.272 53.1732C404.272 60.5332 405.739 66.717 408.673 71.7245C411.653 76.732 415.806 80.5128 421.132 83.067C426.459 85.6212 432.621 86.8982 439.618 86.8982C443.545 86.8982 447.179 86.5117 450.519 85.7388C453.905 84.9658 456.906 83.84 459.525 82.3612C462.143 80.8489 464.31 79.0173 466.025 76.8664C467.785 74.7156 469.004 72.2622 469.681 69.5064L499.339 69.6072C498.572 74.3459 496.653 78.9165 493.583 83.319C490.559 87.688 486.474 91.6033 481.328 95.0648C476.227 98.4928 470.133 101.215 463.046 103.231C456.004 105.214 448.036 106.206 439.144 106.206C426.775 106.206 415.715 104.122 405.965 99.9547C396.26 95.7874 388.586 89.7549 382.943 81.8571C377.346 73.9594 374.547 64.3981 374.547 53.1732C374.547 41.9147 377.391 32.3366 383.079 24.4388C388.766 16.5411 396.485 10.5253 406.236 6.39161C415.986 2.22429 426.955 0.140625 439.144 0.140625C447.179 0.140625 454.627 0.98081 461.488 2.66118C468.395 4.34156 474.511 6.7949 479.838 10.0212C485.165 13.2139 489.498 17.1292 492.839 21.767C496.224 26.4048 498.391 31.7148 499.339 37.6969Z" fill="#2FB975"/>
<path d="M264.754 104.789H233.336L281.208 1.54688H318.991L366.795 104.789H335.377L300.641 25.1393H299.558L264.754 104.789ZM262.79 64.2079H337.002V81.2469H262.79V64.2079Z" fill="#2FB975"/>
<path d="M133.391 104.789V1.54688H188.101C198.619 1.54688 207.58 3.04241 214.983 6.03347C222.386 8.99092 228.029 13.1078 231.911 18.3842C235.838 23.627 237.802 29.6763 237.802 36.5322C237.802 43.3881 235.815 49.4375 231.843 54.6802C227.871 59.923 222.115 64.0063 214.577 66.9302C207.083 69.854 198.01 71.3159 187.357 71.3159H152.485V53.8232H182.617C188.259 53.8232 192.909 53.1007 196.565 51.6556C200.267 50.1768 203.02 48.1436 204.826 45.5558C206.677 42.9344 207.602 39.9266 207.602 36.5322C207.602 33.1043 206.677 30.1132 204.826 27.559C203.02 24.9713 200.267 22.9716 196.565 21.5601C192.864 20.115 188.169 19.3924 182.481 19.3924H162.71V104.789H133.391Z" fill="#2FB975"/>
<path d="M83.6963 31.2443C83.1546 27.1778 80.8298 24.0187 76.722 21.767C72.6142 19.5153 67.0393 18.3895 59.9973 18.3895C55.2123 18.3895 51.1722 18.8936 47.877 19.9018C44.5817 20.8764 42.0538 22.2375 40.2933 23.9851C38.5779 25.7327 37.7203 27.7155 37.7203 29.9336C37.63 31.782 38.1491 33.3952 39.2776 34.7731C40.4513 36.151 42.0538 37.3441 44.0851 38.3523C46.1165 39.3269 48.4638 40.1839 51.1271 40.9233C53.7904 41.629 56.6343 42.2339 59.6587 42.7381L72.1176 44.9561C78.1665 45.9644 83.7188 47.3087 88.7746 48.989C93.8304 50.6694 98.2091 52.7363 101.911 55.1896C105.612 57.643 108.479 60.5332 110.51 63.8603C112.586 67.1875 113.647 71.0019 113.692 75.3037C113.647 81.6219 111.48 87.0999 107.192 91.7377C102.949 96.3419 96.8097 99.9211 88.7746 102.475C80.7847 104.996 71.1471 106.256 59.8619 106.256C48.6669 106.256 38.9165 104.979 30.6106 102.425C22.3498 99.8707 15.8946 96.0899 11.2451 91.0824C6.64074 86.0413 4.2257 79.8071 4 72.3798H32.3711C32.687 75.8414 34.0187 78.7316 36.366 81.0505C38.7585 83.3359 41.9409 85.0666 45.9133 86.2429C49.9309 87.3855 54.4675 87.9569 59.5233 87.9569C64.4888 87.9569 68.7998 87.4192 72.4562 86.3437C76.1577 85.2683 79.0242 83.7728 81.0555 81.8571C83.0869 79.9415 84.1025 77.7402 84.1025 75.2533C84.1025 72.9343 83.1771 70.9851 81.3263 69.4056C79.5207 67.826 76.8574 66.4817 73.3364 65.3727C69.8606 64.2636 65.5947 63.2554 60.539 62.348L45.4393 59.525C33.7479 57.4077 24.5165 54.0974 17.7454 49.594C10.9743 45.0906 7.61127 39.0244 7.65641 31.3955C7.61127 25.1446 9.84575 19.6834 14.3598 15.0119C18.9191 10.3405 25.1711 6.69408 33.1159 4.0727C41.0607 1.45131 50.0889 0.140625 60.2004 0.140625C70.4925 0.140625 79.4756 1.45131 87.1495 4.0727C94.8686 6.69408 100.872 10.3405 105.161 15.0119C109.449 19.6834 111.661 25.0941 111.796 31.2443H83.6963Z" fill="#2FB975"/>
</g>
<defs>
<filter id="filter0_d_582_5498" x="0" y="0.140625" width="618.062" height="114.117" filterUnits="userSpaceOnUse" color-interpolation-filters="sRGB">
<feFlood flood-opacity="0" result="BackgroundImageFix"/>
<feColorMatrix in="SourceAlpha" type="matrix" values="0 0 0 0 0 0 0 0 0 0 0 0 0 0 0 0 0 0 127 0" result="hardAlpha"/>
<feOffset dy="4"/>
<feGaussianBlur stdDeviation="2"/>
<feComposite in2="hardAlpha" operator="out"/>
<feColorMatrix type="matrix" values="0 0 0 0 0 0 0 0 0 0 0 0 0 0 0 0 0 0 0.25 0"/>
<feBlend mode="normal" in2="BackgroundImageFix" result="effect1_dropShadow_582_5498"/>
<feBlend mode="normal" in="SourceGraphic" in2="effect1_dropShadow_582_5498" result="shape"/>
</filter>
</defs>
</svg>
