<svg width="113" height="130" viewBox="0 0 113 130" fill="none" xmlns="http://www.w3.org/2000/svg">
<g filter="url(#filter0_d_596_7237)">
<mask id="path-1-outside-1_596_7237" maskUnits="userSpaceOnUse" x="4.10938" y="0" width="105" height="122" fill="black">
<rect fill="white" x="4.10938" width="105" height="122"/>
<path d="M99.7424 9.75794V113H80.8886L35.9723 48.02H35.2161V113H13.3881V9.75794H32.5443L77.1078 74.6875H78.0152V9.75794H99.7424Z"/>
</mask>
<path d="M99.7424 9.75794V113H80.8886L35.9723 48.02H35.2161V113H13.3881V9.75794H32.5443L77.1078 74.6875H78.0152V9.75794H99.7424Z" fill="#2FB975"/>
<path d="M99.7424 9.75794H108.742V0.757942H99.7424V9.75794ZM99.7424 113V122H108.742V113H99.7424ZM80.8886 113L73.4852 118.118L76.1689 122H80.8886V113ZM35.9723 48.02L43.3758 42.9025L40.6921 39.02H35.9723V48.02ZM35.2161 48.02V39.02H26.2161V48.02H35.2161ZM35.2161 113V122H44.2161V113H35.2161ZM13.3881 113H4.38811V122H13.3881V113ZM13.3881 9.75794V0.757942H4.38811V9.75794H13.3881ZM32.5443 9.75794L39.9648 4.66505L37.2832 0.757942H32.5443V9.75794ZM77.1078 74.6875L69.6874 79.7804L72.369 83.6875H77.1078V74.6875ZM78.0152 74.6875V83.6875H87.0152V74.6875H78.0152ZM78.0152 9.75794V0.757942H69.0152V9.75794H78.0152ZM99.7424 9.75794H90.7424V113H99.7424H108.742V9.75794H99.7424ZM99.7424 113V104H80.8886V113V122H99.7424V113ZM80.8886 113L88.2921 107.882L43.3758 42.9025L35.9723 48.02L28.5689 53.1375L73.4852 118.118L80.8886 113ZM35.9723 48.02V39.02H35.2161V48.02V57.02H35.9723V48.02ZM35.2161 48.02H26.2161V113H35.2161H44.2161V48.02H35.2161ZM35.2161 113V104H13.3881V113V122H35.2161V113ZM13.3881 113H22.3881V9.75794H13.3881H4.38811V113H13.3881ZM13.3881 9.75794V18.7579H32.5443V9.75794V0.757942H13.3881V9.75794ZM32.5443 9.75794L25.1239 14.8508L69.6874 79.7804L77.1078 74.6875L84.5282 69.5946L39.9648 4.66505L32.5443 9.75794ZM77.1078 74.6875V83.6875H78.0152V74.6875V65.6875H77.1078V74.6875ZM78.0152 74.6875H87.0152V9.75794H78.0152H69.0152V74.6875H78.0152ZM78.0152 9.75794V18.7579H99.7424V9.75794V0.757942H78.0152V9.75794Z" fill="white" mask="url(#path-1-outside-1_596_7237)"/>
</g>
<defs>
<filter id="filter0_d_596_7237" x="0.390625" y="0.757812" width="112.352" height="129.242" filterUnits="userSpaceOnUse" color-interpolation-filters="sRGB">
<feFlood flood-opacity="0" result="BackgroundImageFix"/>
<feColorMatrix in="SourceAlpha" type="matrix" values="0 0 0 0 0 0 0 0 0 0 0 0 0 0 0 0 0 0 127 0" result="hardAlpha"/>
<feOffset dy="4"/>
<feGaussianBlur stdDeviation="2"/>
<feComposite in2="hardAlpha" operator="out"/>
<feColorMatrix type="matrix" values="0 0 0 0 0 0 0 0 0 0 0 0 0 0 0 0 0 0 0.25 0"/>
<feBlend mode="normal" in2="BackgroundImageFix" result="effect1_dropShadow_596_7237"/>
<feBlend mode="normal" in="SourceGraphic" in2="effect1_dropShadow_596_7237" result="shape"/>
</filter>
</defs>
</svg>
