<svg width="630" height="125" viewBox="0 0 630 125" fill="none" xmlns="http://www.w3.org/2000/svg">
<path d="M624.293 6.04688V33.0439H560.171V48.6445H619.485V75.6406H560.171V91.292H624.564V118.289H521.852V6.04688H624.293Z" fill="#2FB975" stroke="white" stroke-width="9"/>
<path d="M445.144 4.64062C453.491 4.64063 461.303 5.5131 468.559 7.29004L468.558 7.29102C475.839 9.06304 482.385 11.6723 488.15 15.1611H488.151C493.949 18.6359 498.748 22.9483 502.474 28.1143L502.828 28.6074C506.453 33.7339 508.763 39.553 509.783 45.9922L510.608 51.1973H471.954L471.26 47.5352C470.84 45.3237 470.004 43.4326 468.769 41.792L468.759 41.7783L468.749 41.7656C467.459 40.0262 465.768 38.4956 463.606 37.1914C461.433 35.88 458.843 34.8275 455.787 34.0791L455.773 34.0762C452.788 33.3352 449.477 32.9482 445.82 32.9482C439.198 32.9483 433.66 34.1715 429.072 36.458L429.062 36.4629L429.052 36.4678C424.505 38.7054 421.043 41.9274 418.562 46.1885L418.556 46.1992C416.11 50.3725 414.773 55.6289 414.772 62.1729C414.772 68.9304 416.115 74.2718 418.541 78.4238L418.779 78.8174C421.278 82.8554 424.681 85.9014 429.078 88.0098C433.695 90.2237 439.171 91.3984 445.617 91.3984C449.251 91.3984 452.541 91.0403 455.505 90.3545L455.518 90.3516C458.534 89.6629 461.11 88.6834 463.292 87.4541C465.463 86.1974 467.179 84.7256 468.507 83.0605L468.524 83.0381L468.543 83.0166C469.87 81.3955 470.791 79.5516 471.312 77.4326L472.156 73.9941L475.696 74.0068L505.354 74.1074L510.623 74.125L509.781 79.3262C508.895 84.8017 506.687 89.992 503.282 94.8789L503.283 94.8799C499.891 99.7807 495.374 104.075 489.839 107.799L489.838 107.8C484.276 111.538 477.731 114.439 470.277 116.56L470.266 116.563C462.752 118.679 454.363 119.706 445.144 119.706C432.267 119.706 420.591 117.535 410.196 113.093L410.189 113.09C399.797 108.628 391.444 102.098 385.281 93.4727L385.271 93.459C379.053 84.6843 376.047 74.1763 376.047 62.1729C376.047 50.1238 379.104 39.5878 385.427 30.8086C391.635 22.1876 400.033 15.6796 410.467 11.2539L411.444 10.8438C421.579 6.68025 432.835 4.64062 445.144 4.64062Z" fill="#2FB975" stroke="white" stroke-width="9"/>
<path d="M327.866 6.04688L329.074 8.65625L376.879 111.898L379.838 118.289H338.43L337.252 115.588L328.163 94.7471H283.985L274.878 115.591L273.698 118.289H232.289L235.254 111.896L283.125 8.6543L284.334 6.04688H327.866ZM295.363 68.708H316.808L306.096 44.1455L295.363 68.708Z" fill="#2FB975" stroke="white" stroke-width="9"/>
<path d="M194.102 6.04688C205.016 6.04689 214.576 7.59498 222.651 10.8545C230.651 14.0503 237.035 18.6155 241.512 24.6865H241.513C246.051 30.7457 248.302 37.7522 248.302 45.5322C248.302 53.3247 246.021 60.3379 241.43 66.3975C236.85 72.4422 230.342 76.9697 222.204 80.126L222.203 80.125C214.051 83.3041 204.394 84.8164 193.356 84.8164H173.21V118.289H134.891V6.04688H194.102ZM173.21 58.3232H188.617C193.91 58.3232 197.942 57.64 200.895 56.4766C203.994 55.2382 205.95 53.6796 207.136 51.9805L207.143 51.9707L207.15 51.96C208.433 50.1432 209.103 48.0538 209.103 45.5322C209.103 42.9659 208.428 40.918 207.183 39.1992L207.158 39.167L207.136 39.1338C205.965 37.4556 204.036 35.9369 200.962 34.7646L200.945 34.7588L200.929 34.752C197.922 33.578 193.831 32.8926 188.481 32.8926H173.21V58.3232Z" fill="#2FB975" stroke="white" stroke-width="9"/>
<path d="M66.2002 4.64062C76.8568 4.64062 86.3487 5.99661 94.5957 8.8125C102.831 11.6091 109.551 15.6045 114.476 20.9688C119.478 26.418 122.135 32.8664 122.295 40.1455L122.396 44.7441H85.7559L85.2354 40.8389C84.9115 38.4075 83.6151 36.3883 80.5586 34.7129C77.365 32.9624 72.6332 31.8896 65.9971 31.8896C61.4989 31.8897 57.9323 32.3671 55.1934 33.2051L55.1738 33.2109L55.1533 33.2168C52.3307 34.0516 50.5551 35.1048 49.4854 36.1572C48.5173 37.151 48.2207 38.0282 48.2207 38.9336V39.043L48.2148 39.1533C48.1775 39.9185 48.3594 40.42 48.7344 40.8896C49.425 41.6889 50.4819 42.5222 52.0674 43.3115C53.8036 44.1414 55.8787 44.9046 58.3203 45.583C60.8219 46.2444 63.5132 46.8179 66.3984 47.2988L66.4229 47.3037L66.4473 47.3076L78.9062 49.5254H78.9053C85.1327 50.5656 90.9002 51.9591 96.1943 53.7188C101.554 55.5003 106.306 57.7273 110.396 60.4385C114.557 63.1961 117.909 66.5317 120.326 70.4775H120.327C122.883 74.5727 124.139 79.2115 124.192 84.2568V84.3359C124.139 91.7752 121.546 98.3315 116.496 103.793L116.495 103.792C111.57 109.134 104.666 113.053 96.1377 115.764L96.1289 115.767C87.5791 118.464 77.4582 119.756 65.8623 119.756C54.3412 119.756 44.1253 118.444 35.2881 115.727L35.2812 115.724C26.464 112.997 19.2577 108.864 13.9473 103.145L13.9346 103.131L13.9229 103.117C8.52664 97.2091 5.75725 89.9169 5.50195 81.5166L5.36133 76.8799H42.4785L42.8525 80.9707C43.0762 83.4205 43.9678 85.294 45.499 86.8193C47.2589 88.4915 49.7525 89.9092 53.1924 90.9277C56.725 91.9268 60.821 92.457 65.5234 92.457C70.1814 92.457 74.0454 91.9503 77.1865 91.0264L77.2002 91.0225C80.4633 90.0744 82.6146 88.8591 83.9678 87.583C85.2195 86.4026 85.6025 85.3424 85.6025 84.2529C85.6025 83.3236 85.3106 82.6008 84.4053 81.8281L84.3838 81.8105L84.3633 81.793C83.2097 80.7838 81.1992 79.6776 77.9844 78.665L77.9766 78.6621L77.9688 78.6602C74.739 77.6296 70.6774 76.6628 65.7441 75.7773L65.7275 75.7744L65.7119 75.7715L50.6377 72.9521V72.9531C38.5975 70.7727 28.7141 67.3031 21.2529 62.3408C13.3357 57.0751 9.12031 49.6599 9.15723 40.4268L9.15625 40.4277C9.10231 32.9485 11.8271 26.3663 17.124 20.8848L17.1396 20.8691C22.3249 15.5563 29.2634 11.5845 37.7061 8.79883C46.1891 5.99989 55.7064 4.64064 66.2002 4.64062Z" fill="#2FB975" stroke="white" stroke-width="9"/>
</svg>
